<?xml version="1.0" encoding="UTF-8" standalone="no"?>
<!-- Created with Inkscape (http://www.inkscape.org/) -->

<svg
   xmlns:dc="http://purl.org/dc/elements/1.1/"
   xmlns:cc="http://creativecommons.org/ns#"
   xmlns:rdf="http://www.w3.org/1999/02/22-rdf-syntax-ns#"
   xmlns:svg="http://www.w3.org/2000/svg"
   xmlns="http://www.w3.org/2000/svg"
   xmlns:sodipodi="http://sodipodi.sourceforge.net/DTD/sodipodi-0.dtd"
   xmlns:inkscape="http://www.inkscape.org/namespaces/inkscape"
   width="210mm"
   height="297mm"
   viewBox="0 0 210 297"
   version="1.1"
   id="svg1653"
   inkscape:version="0.92.3 (2405546, 2018-03-11)"
   sodipodi:docname="hospital.svg"
   inkscape:export-filename="/home/vilda/programming/out-of-the-calm-house/src/hospital.png"
   inkscape:export-xdpi="45.501999"
   inkscape:export-ydpi="45.501999">
  <defs
     id="defs1647" />
  <sodipodi:namedview
     id="base"
     pagecolor="#ffffff"
     bordercolor="#666666"
     borderopacity="1.0"
     inkscape:pageopacity="0.0"
     inkscape:pageshadow="2"
     inkscape:zoom="0.55127698"
     inkscape:cx="1134.7214"
     inkscape:cy="205.88118"
     inkscape:document-units="mm"
     inkscape:current-layer="layer1"
     showgrid="false"
     inkscape:window-width="1920"
     inkscape:window-height="1047"
     inkscape:window-x="2560"
     inkscape:window-y="360"
     inkscape:window-maximized="1" />
  <metadata
     id="metadata1650">
    <rdf:RDF>
      <cc:Work
         rdf:about="">
        <dc:format>image/svg+xml</dc:format>
        <dc:type
           rdf:resource="http://purl.org/dc/dcmitype/StillImage" />
        <dc:title></dc:title>
      </cc:Work>
    </rdf:RDF>
  </metadata>
  <g
     inkscape:label="Layer 1"
     inkscape:groupmode="layer"
     id="layer1">
    <rect
       style="fill:#999999;fill-opacity:1;stroke-width:1.27760434;stroke-linecap:round;stroke-miterlimit:4;stroke-dasharray:none"
       id="rect815"
       width="474.94012"
       height="137.76869"
       x="-19.041945"
       y="94.608849" />
    <path
       style="fill:#000000;fill-opacity:1;stroke-width:5.31527376;stroke-linecap:round;stroke-miterlimit:4;stroke-dasharray:none"
       id="path855-3"
       d="m 4.3461771,91.430548 c 10.8073909,0.181328 21.6360429,0.34661 32.4744749,0.45508 20.86071,0.131769 41.742974,0.172241 62.613184,0.114642 17.088884,-0.103841 34.184534,-0.10307 51.276464,-0.187933 17.49819,-0.138249 34.95234,-0.407943 52.45175,-0.548105 13.21527,-0.126677 26.44114,-0.13146 39.66772,-0.132386 12.40223,-0.0046 24.79246,-0.157258 37.17329,-0.287839 9.87983,-0.166424 19.76224,-0.09767 29.6495,-0.02068 1.64793,0.0108 3.29618,0.01867 4.9438,0.03024 3.59013,0.025 7.63982,0.06851 11.22441,0.06712 5.61963,-0.0015 11.25809,-0.06496 16.87204,-0.108624 11.10469,-0.01636 22.20842,-0.06079 33.31344,-0.06388 11.43439,0.05462 22.82768,0.241628 34.26135,0.300167 10.91143,0.0046 21.81848,0.04907 32.72875,0.07298 12.711,0.09196 25.41667,0.177595 38.13832,0.169325 9.23481,-0.0108 18.46711,-0.04598 27.69152,-0.130843 0.94667,-0.0031 1.89655,0.0031 2.84002,-0.0108 3.06096,-0.04922 1.62769,-0.07329 4.49404,-0.183844 2.63003,-0.101372 5.38337,-0.102452 8.05165,-0.13578 0.87158,-0.01234 1.74314,-0.02515 2.61473,-0.03749 l -32.35086,7.148223 v 0 c -0.79363,0.01234 -1.58726,0.02531 -2.38093,0.03796 -2.64775,0.05987 -5.33241,0.167288 -7.99972,0.18605 -1.6971,0.01234 -3.85743,-0.02978 -5.55192,-0.04305 -0.91459,-0.0077 -1.83025,-0.0077 -2.74535,-0.01234 -8.78629,-0.09412 -17.58227,-0.138866 -26.37725,-0.192639 -12.72562,-0.07375 -25.4569,-0.09597 -38.18675,-0.121739 -11.04742,0.0062 -22.09755,0.0287 -33.1251,-0.126677 -11.32608,-0.105384 -22.66556,-0.19736 -34.00773,-0.178428 -11.04734,0.01944 -22.09743,0.01389 -33.13891,0.09813 -11.27364,0.0093 -22.54778,-0.0031 -33.82043,-0.02438 -9.48974,-0.02068 -18.97384,0.0012 -28.46146,0.04737 -12.45967,0.06619 -24.90535,0.226461 -37.3777,0.171207 -12.91336,0.0108 -25.82761,0.03163 -38.74,0.06619 -17.26902,0.09273 -34.52541,0.247244 -51.78319,0.395044 -6.18529,0.0466 -12.36658,0.114025 -18.55459,0.145193 -10.916132,0.05508 -21.836578,-0.01558 -32.7441,-0.09057 -21.031448,-0.08317 -42.071667,-0.06897 -63.1066503,-0.06403 -11.9208188,0.03857 -15.6603121,2.024408 -27.5388537,2.227828 l -0.905674,-9.995071 z"
       inkscape:connector-curvature="0"
       sodipodi:nodetypes="ccccccccccccccccccccccccccccccccccccsccccc" />
    <path
       style="fill:#000000;fill-opacity:1;stroke-width:8.00801373;stroke-linecap:round;stroke-miterlimit:4;stroke-dasharray:none"
       id="path855"
       d="m -0.19707272,191.45633 c 10.88392772,0.40869 21.78926572,0.78122 32.70445272,1.0257 21.008443,0.29699 42.03859,0.38821 63.056605,0.25839 17.209895,-0.23404 34.426635,-0.23231 51.639605,-0.42358 17.6221,-0.3116 35.19986,-0.91946 52.82319,-1.23537 13.30886,-0.28552 26.62838,-0.2963 39.94863,-0.29838 12.49006,-0.0104 24.96803,-0.35445 37.43654,-0.64876 9.94982,-0.3751 19.9022,-0.22014 29.85947,-0.0466 1.65961,0.0243 3.31955,0.0421 4.97882,0.0682 3.61555,0.0563 7.6939,0.15441 11.30389,0.15128 5.65944,-0.003 11.33783,-0.14641 16.99154,-0.24483 11.1833,-0.0369 22.36567,-0.13702 33.54935,-0.14398 11.51535,0.12311 22.98934,0.54461 34.50398,0.67655 10.9887,0.0104 21.97302,0.11059 32.96053,0.16449 12.80101,0.20727 25.59664,0.40028 38.4084,0.38164 9.3002,-0.0243 18.5979,-0.10363 27.88762,-0.2949 0.95338,-0.007 1.90999,0.007 2.86013,-0.0243 3.08267,-0.11093 1.63922,-0.16519 4.52587,-0.41436 2.64869,-0.22848 5.42152,-0.23092 8.1087,-0.30604 0.87774,-0.0278 1.7555,-0.0567 2.63327,-0.0845 l -32.57999,16.11134 v 0 c -0.79925,0.0278 -1.59849,0.057 -2.39783,0.0856 -2.66649,0.13493 -5.37014,0.37705 -8.05635,0.41937 -1.70917,0.0278 -3.88478,-0.0671 -5.59124,-0.097 -0.92107,-0.0174 -1.8432,-0.0174 -2.76479,-0.0278 -8.84849,-0.21214 -17.70675,-0.31299 -26.56401,-0.43415 -12.81579,-0.16623 -25.63722,-0.21631 -38.45721,-0.27439 -11.12568,0.0139 -22.25404,0.0647 -33.3597,-0.28552 -11.40625,-0.23752 -22.82607,-0.44482 -34.24856,-0.40212 -11.12557,0.0438 -22.25392,0.0313 -33.3736,0.22118 -11.35346,0.0209 -22.70742,-0.007 -34.05994,-0.055 -9.55693,-0.0466 -19.10821,0.003 -28.66301,0.10677 -12.5479,0.14919 -25.08171,0.51042 -37.6424,0.38588 -13.00481,0.0243 -26.01052,0.0713 -39.01433,0.14919 -17.39133,0.20901 -34.76994,0.55726 -52.14993,0.89039 -6.22908,0.10502 -12.45415,0.257 -18.685979,0.32725 -10.993451,0.12415 -21.991239,-0.0351 -32.976006,-0.20414 -21.180375,-0.18745 -42.369608,-0.15545 -63.5535446,-0.14432 -12.0052534,0.0869 -17.8040764,-0.87519 -29.7667254,-0.4167 l 1.351562,-12.54429 z"
       inkscape:connector-curvature="0"
       sodipodi:nodetypes="ccccccccccccccccccccccccccccccccccccsccccc" />
    <path
       style="fill:#000000;fill-opacity:1;stroke-width:2.19619155;stroke-linecap:round;stroke-miterlimit:4;stroke-dasharray:none"
       id="path855-3-9"
       d="m -23.260835,226.36542 c 0.11752,-2.84683 0.22464,-5.69929 0.29494,-8.55432 0.0854,-5.49506 0.11163,-10.9958 0.0743,-16.49337 -0.0673,-4.5015 -0.0668,-9.00478 -0.1218,-13.50709 -0.0896,-4.60933 -0.26439,-9.20704 -0.35523,-13.81668 -0.0821,-3.48112 -0.0852,-6.96504 -0.0858,-10.44915 -0.003,-3.26695 -0.10192,-6.53076 -0.18655,-9.79207 -0.10786,-2.60252 -0.0633,-5.20571 -0.0134,-7.81018 0.007,-0.4341 0.0121,-0.86828 0.0196,-1.30229 0.0162,-0.9457 0.0444,-2.01245 0.0435,-2.95669 -0.001,-1.48031 -0.0421,-2.96557 -0.0704,-4.44439 -0.0106,-2.92517 -0.0394,-5.85007 -0.0414,-8.77532 0.0354,-3.01201 0.1566,-6.0132 0.19454,-9.02502 0.003,-2.87426 0.0318,-5.74736 0.0473,-8.62131 0.0596,-3.34829 0.1151,-6.69518 0.10974,-10.04627 -0.007,-2.43261 -0.0298,-4.864554 -0.0848,-7.294421 -0.002,-0.249364 0.009,0.248535 0,0 -0.0319,-0.806308 3.554075,0.866473 3.482425,0.111428 -0.579109,-5.443627 -0.01412,1.936129 0.911925,3.66872 v 0 c 0.008,0.209056 0.0164,0.418107 0.0246,0.627174 0.0388,0.697463 0.10842,1.404649 0.12058,2.107262 0.008,0.447047 -0.0193,1.016117 -0.0279,1.462477 -0.005,0.24091 -0.005,0.48211 -0.008,0.72317 -0.061,2.31445 -0.09,4.63146 -0.12485,6.9482 -0.0478,3.35216 -0.0622,6.70579 -0.0789,10.05904 0.004,2.91008 0.0186,5.82087 -0.0821,8.72572 -0.0683,2.98347 -0.12791,5.97048 -0.11564,8.95821 0.0126,2.91006 0.009,5.82083 0.0636,8.72935 0.006,2.96967 -0.002,5.93947 -0.0158,8.90888 -0.0134,2.49975 7.9e-4,4.99803 0.0307,7.49722 0.0429,3.28209 0.14677,6.56049 0.11096,9.84593 0.007,3.40159 0.0205,6.80342 0.0429,10.20476 0.0601,4.54896 0.16024,9.09459 0.25603,13.64057 0.0302,1.62931 0.0739,3.25756 0.0941,4.88759 0.0357,2.8755 -0.0101,5.75213 -0.0587,8.62536 -0.0539,5.54005 -0.0447,11.08239 -0.0415,16.62336 0.025,3.14015 1.31202,4.12519 1.44386,7.2542 l -6.47785,0.23857 z"
       inkscape:connector-curvature="0"
       sodipodi:nodetypes="ccccccccccccccccccccccccccccccccccsccccc" />
    <path
       style="fill:#000000;fill-opacity:1;stroke-width:2.22945142;stroke-linecap:round;stroke-miterlimit:4;stroke-dasharray:none"
       id="path855-3-9-1"
       d="m 446.93587,226.69866 c 0.11752,-2.93372 0.22464,-5.87323 0.29494,-8.81539 0.0854,-5.66275 0.11163,-11.33137 0.0743,-16.99671 -0.0673,-4.63888 -0.0668,-9.27959 -0.1218,-13.91929 -0.0896,-4.75 -0.26439,-9.48803 -0.35523,-14.23835 -0.0821,-3.58736 -0.0852,-7.1776 -0.0858,-10.76803 -0.003,-3.36666 -0.10192,-6.73007 -0.18655,-10.09091 -0.10786,-2.68194 -0.0633,-5.36458 -0.0134,-8.04853 0.007,-0.44735 0.0121,-0.89477 0.0196,-1.34203 0.0162,-0.97456 0.0444,-2.07387 0.0435,-3.04693 -0.001,-1.52548 -0.0421,-3.05607 -0.0704,-4.58002 -0.0106,-3.01444 -0.0394,-6.0286 -0.0414,-9.04313 0.0354,-3.10393 0.1566,-6.19671 0.19454,-9.30044 0.003,-2.96198 0.0318,-5.92276 0.0473,-8.88441 0.0596,-3.45048 0.1151,-6.89951 0.10974,-10.352876 -0.007,-2.50686 -0.0298,-5.013023 -0.0848,-7.517043 -0.002,-0.256975 0.009,0.256119 0,0 -0.0319,-0.830916 3.55407,0.892915 3.48242,0.114828 -0.57911,-5.609756 -0.0141,1.995216 0.91193,3.780682 v 0 c 0.008,0.215435 0.0164,0.430867 0.0246,0.646313 0.0388,0.718749 0.10842,1.44752 0.12058,2.171576 0.008,0.460698 -0.0193,1.04713 -0.0279,1.507115 -0.005,0.248259 -0.005,0.496835 -0.008,0.745248 -0.061,2.385087 -0.09,4.772807 -0.12485,7.160247 -0.0478,3.45446 -0.0622,6.91043 -0.0789,10.36602 0.004,2.9989 0.0186,5.99852 -0.0821,8.99201 -0.0683,3.07452 -0.12791,6.15269 -0.11564,9.2316 0.0126,2.99886 0.009,5.99847 0.0636,8.99576 0.006,3.06029 -0.002,6.12073 -0.0158,9.18075 -0.0134,2.57604 7.9e-4,5.15056 0.0307,7.72603 0.0429,3.38225 0.14677,6.7607 0.11096,10.1464 0.007,3.5054 0.0205,7.01105 0.0429,10.5162 0.0601,4.68777 0.16024,9.37213 0.25603,14.05685 0.0302,1.67903 0.0739,3.35697 0.0941,5.03675 0.0357,2.96325 -0.0101,5.92767 -0.0587,8.88858 -0.0539,5.70913 -0.0447,11.4206 -0.0415,17.13067 0.025,3.23599 1.31202,4.2511 1.44386,7.4756 l -6.47785,0.24583 z"
       inkscape:connector-curvature="0"
       sodipodi:nodetypes="ccccccccccccccccccccccccccccccccccsccccc" />
    <rect
       style="fill:#e6e6e6;fill-opacity:1;stroke-width:1.06527793;stroke-linecap:round;stroke-miterlimit:4;stroke-dasharray:none"
       id="rect2873"
       width="18.208134"
       height="12.504382"
       x="152.30836"
       y="117.53638" />
    <path
       style="fill:#666666;fill-opacity:1;stroke-width:1.06527793;stroke-linecap:round;stroke-miterlimit:4;stroke-dasharray:none"
       id="path2883"
       d="m 152.57115,116.76832 c -0.11385,2.02265 -0.10983,4.04996 -0.12058,6.07514 0.0111,2.41084 0.0506,4.82764 0.28839,7.22838 0.023,0.17308 0.0433,0.34652 0.069,0.51922 0.0253,0.16981 0.0506,0.33366 0.10058,0.49696 0.009,0.0291 0.009,-0.0979 -0.0197,-0.0889 -1.25328,0.39337 -2.02943,0.87889 -1.49019,0.54516 0.12202,-0.15172 0.14632,-0.36764 0.25523,-0.52435 0.031,-0.0447 0.0732,-0.0806 0.10979,-0.12088 0.53314,-0.31098 1.56669,-0.91432 1.74714,-1.00718 0.13932,-0.0717 0.79227,-0.1765 0.89526,-0.19167 0.55975,-0.0825 0.90571,-0.107 1.48098,-0.16157 1.92907,-0.15165 3.86471,-0.17344 5.79859,-0.15739 1.67014,0.054 3.3401,0.11077 5.01088,0.14089 1.08034,0.0196 2.15746,0.0878 3.23058,0.21134 0.43638,0.0516 0.87406,0.093 1.31338,0.1063 0.30709,-0.62293 -0.29735,0.089 -1.20021,0.61198 -0.0356,0.0207 0.0577,-0.0589 0.0856,-0.0892 0.14603,-0.15901 0.0938,-0.10203 0.234,-0.33043 0.50824,-0.99703 0.46165,-2.15794 0.39526,-3.24396 -0.0917,-0.98098 -0.1699,-1.96307 -0.29381,-2.94063 -0.13622,-0.9213 -0.17862,-1.85351 -0.24481,-2.78181 -0.0535,-0.64109 -0.0494,-1.28528 -0.0562,-1.92815 -0.0197,-0.22491 -0.009,-0.46609 -0.0857,-0.68289 -0.016,-0.0451 -0.0955,-0.16531 -0.11296,-0.19322 -0.0663,-0.11079 -0.13459,-0.22028 -0.20553,-0.32817 0,0 1.48788,-0.88824 1.48788,-0.88824 v 0 c 0.0705,0.11149 0.13644,0.22538 0.20425,0.33855 0.0581,0.094 0.1499,0.23551 0.19033,0.33447 0.10324,0.25274 0.0835,0.54383 0.10793,0.80877 -0.002,0.63774 0.005,1.27517 0.0255,1.91261 0.0342,0.92147 0.0992,1.83981 0.22689,2.75349 0.11323,0.99186 0.21292,1.98448 0.27357,2.98126 0.0239,0.40536 0.0614,0.93519 0.058,1.33844 -0.004,0.50675 -0.0373,0.79592 -0.10737,1.29038 -0.0248,0.17505 -0.0461,0.35107 -0.0851,0.52352 -0.0263,0.11644 -0.0736,0.22716 -0.11035,0.34074 -0.0679,0.1377 -0.12162,0.28231 -0.19338,0.41804 -0.0212,0.04 -0.041,0.0849 -0.078,0.11089 -0.76568,0.53754 -0.98811,1.05797 -1.70221,0.90772 -0.43362,-0.0468 -0.8663,-0.10101 -1.29836,-0.16055 -1.04559,-0.13312 -2.09728,-0.19808 -3.1509,-0.2252 -1.65978,-0.0449 -3.3181,-0.12845 -4.97803,-0.16707 -1.92568,-0.0169 -3.85525,0.007 -5.77176,0.21596 -0.65332,0.0883 -1.32706,0.15216 -1.95011,0.38527 -0.11615,0.0435 -0.43992,0.22762 -0.33563,0.16051 1.61925,-1.04196 1.3447,-0.8417 0.92208,-0.51723 -0.06,0.008 -0.1235,-0.004 -0.18063,0.0164 -0.12685,0.0439 -0.14408,0.25588 -0.21785,0.34928 -0.15948,0.68747 -0.0406,0.34127 -1.65337,0.80807 -0.0644,0.0187 -0.0779,-0.11141 -0.0991,-0.175 -0.0219,-0.0655 -0.0207,-0.13663 -0.028,-0.20532 -0.0126,-0.11973 -0.0226,-0.23972 -0.0316,-0.35977 -0.0135,-0.18189 -0.0239,-0.36401 -0.0358,-0.54601 -0.119,-2.43457 -0.14129,-4.87281 -0.17579,-7.30967 -0.0106,-1.99428 -0.005,-3.99091 -0.12058,-5.98257 0,0 1.62242,-0.62278 1.62242,-0.62278 z"
       inkscape:connector-curvature="0" />
    <path
       style="fill:#666666;fill-opacity:1;stroke-width:1.06527793;stroke-linecap:round;stroke-miterlimit:4;stroke-dasharray:none"
       id="path2885"
       d="m 152.61667,116.40667 c 0.70644,0.18327 1.41504,0.36143 2.13031,0.50693 0.81704,0.15807 1.64931,0.19246 2.47896,0.21291 0.74488,0.0104 1.48983,0.008 2.23475,0.005 0.75892,3.7e-4 1.51783,10e-4 2.27674,-0.003 0.60548,-0.003 1.21097,-0.003 1.81644,-0.006 0.61785,0.0186 1.23333,-0.006 1.84764,-0.0722 0.65026,-0.0673 1.30173,-0.11476 1.95502,-0.1359 0.52167,0.009 1.0386,-0.0381 1.55813,-0.0743 0.43322,-0.0337 0.86781,-0.0433 1.30209,-0.0532 0.21041,-0.004 0.42082,-0.007 0.63126,-0.006 0.14833,-1.9e-4 0.29667,1.8e-4 0.445,3.8e-4 0.0225,-2e-4 0.0451,-3.8e-4 0.0676,-5.7e-4 0,0 -1.16617,1.29469 -1.16617,1.29469 v 0 c -0.0222,-1.8e-4 -0.0444,-3.7e-4 -0.0666,-7.1e-4 -0.14823,-8e-5 -0.29647,0 -0.4447,-7.1e-4 -0.20403,3.8e-4 -0.40808,-0.002 -0.61211,0.001 -0.42405,0.007 -0.84764,0.0254 -1.27061,0.0574 -0.52219,0.038 -1.04423,0.0503 -1.56771,0.0598 -0.64384,0.0286 -1.28644,0.0785 -1.92746,0.14533 -0.6303,0.048 -1.26098,0.0597 -1.89304,0.0533 -0.60153,-0.004 -1.20308,-0.004 -1.80462,-0.006 -0.75858,-0.004 -1.51715,-7.1e-4 -2.27572,0.003 -0.74761,-7.1e-4 -1.49553,0.004 -2.24277,-0.0226 -0.85043,-0.0357 -1.70177,-0.0974 -2.53538,-0.27987 -0.72249,-0.15587 -1.44049,-0.33466 -2.16872,-0.46252 0,0 1.23167,-1.21489 1.23167,-1.21489 z"
       inkscape:connector-curvature="0" />
    <path
       style="fill:#666666;fill-opacity:1;stroke-width:1.06527793;stroke-linecap:round;stroke-miterlimit:4;stroke-dasharray:none"
       id="path2887"
       d="m 169.94251,130.34252 c 0.009,-0.12961 0.0246,-0.25895 0.0256,-0.38884 0.004,-0.55813 -0.084,-1.11135 -0.15493,-1.66317 -0.0887,-0.69042 -0.0562,-0.43099 -0.13647,-1.10188 -0.0851,-0.68525 -0.13746,-1.37362 -0.17475,-2.06287 -0.0162,-0.26464 -0.0172,-0.52966 -0.0168,-0.79466 0.006,-0.47321 0.0229,-0.94589 0.0247,-1.41918 -0.004,-0.61546 -0.001,-1.23083 -0.0109,-1.84626 -0.0446,-0.53751 0.0617,-1.06395 0.1454,-1.59189 0.0644,-0.41562 0.11879,-0.83274 0.15481,-1.25177 0.003,-0.0341 0.005,-0.0682 0.007,-0.10224 0,0 1.63033,-0.5925 1.63033,-0.5925 v 0 c -0.002,0.0384 -0.004,0.0769 -0.006,0.11528 -0.0366,0.43681 -0.11583,0.86817 -0.18353,1.30086 -0.0363,0.22966 -0.0688,0.45991 -0.10525,0.68955 -0.0131,0.0829 -0.0354,0.16444 -0.0433,0.24798 -0.018,0.1888 0.0186,0.38291 -0.004,0.57199 -0.009,0.61831 -0.006,1.23657 -0.0112,1.85492 10e-4,0.46825 0.0192,0.9359 0.0209,1.4041 -0.002,0.26184 -0.006,0.52365 -0.008,0.78547 0.003,0.68348 0.0381,1.3665 0.10413,2.04684 0.11127,1.07206 0.299,2.13704 0.35437,3.21351 0,0 -1.613,0.58476 -1.613,0.58476 z"
       inkscape:connector-curvature="0" />
    <rect
       style="fill:#000000;fill-opacity:1;stroke-width:1.5;stroke-linecap:round;stroke-miterlimit:4;stroke-dasharray:none"
       id="rect2959"
       width="135.15381"
       height="133.95634"
       x="449.56711"
       y="95.138016" />
    <rect
       style="fill:#000000;fill-opacity:1;stroke-width:2.01146555;stroke-linecap:round;stroke-miterlimit:4;stroke-dasharray:none"
       id="rect2961"
       width="493.43405"
       height="59.426567"
       x="-23.885855"
       y="200.27658" />
    <path
       style="fill:#000000;fill-opacity:1;stroke-width:1.5;stroke-linecap:round;stroke-miterlimit:4;stroke-dasharray:none"
       id="path4742"
       d="m 91.588404,197.66744 c 0.04182,-0.46861 0.07625,-0.93794 0.125468,-1.40583 0.387233,-3.68105 0.397084,-3.17951 0.822229,-7.35932 0.414288,-4.07309 0.712714,-8.15409 0.996136,-12.23778 0,0 2.179552,-0.77163 2.179552,-0.77163 v 0 c -0.432982,4.09057 -0.862883,8.18147 -1.141629,12.28629 -0.16491,2.42842 -0.294561,4.68653 -0.266888,7.10175 0.005,0.43815 0.05658,0.87453 0.08487,1.3118 0,0 -2.799741,1.07472 -2.799741,1.07472 z"
       inkscape:connector-curvature="0" />
    <path
       style="fill:#000000;fill-opacity:1;stroke-width:1.5;stroke-linecap:round;stroke-miterlimit:4;stroke-dasharray:none"
       id="path4744"
       d="m 4.4684595,177.71278 c 0.3510066,2.54357 0.35087,5.11829 0.3912169,7.68056 0.01107,4.30935 0.3883043,8.60186 0.8389982,12.88351 0,0 -2.3788671,0.98733 -2.3788671,0.98733 v 0 c -0.321256,-4.30072 -0.6770703,-8.59928 -0.9126452,-12.90593 -0.099074,-2.48377 -0.1297764,-5.01072 -0.6857132,-7.44396 0,0 2.7470104,-1.20151 2.7470104,-1.20151 z"
       inkscape:connector-curvature="0" />
    <path
       style="fill:#000000;fill-opacity:1;stroke-width:1.5;stroke-linecap:round;stroke-miterlimit:4;stroke-dasharray:none"
       id="path4746"
       d="m -0.01495635,177.09711 c 1.52565845,0.008 1.54981365,0.0106 3.49051425,0.004 3.7858276,-0.0127 4.3573025,-0.001 8.3339711,-0.13941 4.86383,-0.16883 5.844212,-0.25279 10.769231,-0.53334 5.688733,-0.34786 11.383143,-0.58687 17.075034,-0.87272 5.27372,-0.26485 10.545056,-0.56714 15.81943,-0.82014 4.52049,-0.19209 9.043273,-0.31793 13.566359,-0.42792 3.071035,-0.0747 4.492233,-0.15401 7.54449,-0.0265 1.180862,0.0493 2.358396,0.1595 3.537593,0.23926 4.070795,0.39575 8.087321,1.18441 12.144947,1.6814 2.342152,0.28688 2.92065,0.31478 5.229759,0.51008 1.943833,0.11479 3.892208,0.20685 5.840198,0.18957 0.35814,-0.003 1.64888,-0.018 2.09328,-0.14826 0.19461,-0.0571 0.35277,-0.20017 0.52916,-0.30025 -0.64377,0.33237 -1.26769,0.70643 -1.93133,0.99712 -0.10947,0.0479 0.18483,-0.15768 0.24737,-0.25952 0.2797,-0.45552 0.1559,-1.11638 0.11274,-1.61292 -0.056,-0.2664 -0.0893,-1.21968 -0.44045,-1.31968 -0.0516,-0.0147 -0.10732,0.004 -0.16098,0.007 -0.56565,-0.0579 -0.42717,-0.0501 -1.15495,-0.0822 -0.91692,-0.0405 -1.77741,-0.0535 -2.701374,-0.10999 -1.72013,-0.10512 -2.903511,-0.23204 -4.654896,-0.396 -4.011785,-0.42088 -8.018555,-0.8968 -12.041646,-1.20082 -2.678379,-0.20241 -4.101462,-0.26473 -6.789589,-0.40999 -6.559531,-0.32677 -13.082233,-1.11149 -19.623428,-1.66649 -6.064385,-0.50952 -12.154019,-0.43884 -18.22985,-0.23816 -5.856155,0.1781 -11.690614,0.70899 -17.502389,1.42973 -5.109809,0.67478 -10.196859,1.50802 -15.2924653,2.2808 -0.6606712,0.10639 -1.321376,0.21258 -1.9820138,0.31917 -1.9459688,0.314 -1.7365739,0.28984 -3.66910852,0.56879 -1.59907638,0.23083 -1.85246828,0.23845 -3.41794648,0.5243 -0.5065514,0.0925 -1.0099588,0.20145 -1.514938,0.30217 -0.6411786,0.16907 -1.6120081,0.38454 -2.236819,0.68652 -0.243364,0.11763 -0.9235813,0.55761 -0.6777966,0.44513 2.9878194,-1.36727 1.9521046,-1.30465 1.4141995,-0.61506 -0.061728,0.0791 -0.088706,0.18006 -0.1330595,0.27009 -0.01071,0.59565 0.2285445,1.44347 0.6895251,1.85746 0.050845,0.0457 0.1198134,0.0658 0.1797198,0.0986 0.064427,-0.009 0.1304721,-0.009 0.1932808,-0.0258 0.6935184,-0.18477 -0.2756191,-0.0164 0.6994017,-0.19808 0.6932067,-0.12919 1.3990076,-0.1856 2.1003202,-0.24692 1.81473948,-0.13648 3.633674,-0.1715 5.4525194,-0.14135 0.2195171,0.005 0.4390342,0.0103 0.6585516,0.0155 0,0 -1.9749135,2.14912 -1.9749135,2.14912 v 0 c -0.2106829,-0.009 -0.4213659,-0.0188 -0.63204883,-0.0282 -1.79011988,-0.0467 -3.58291497,0.0165 -5.36383107,0.21049 -0.9208246,0.11995 -0.6308937,0.075 -1.4970363,0.21395 -0.7558387,0.12126 -1.3721731,0.28758 -2.0485251,-0.1812 -0.097124,-0.0953 -0.2035791,-0.18203 -0.2913716,-0.28603 -0.5923661,-0.70172 -0.8379611,-1.64969 -0.9767636,-2.53297 0.014449,-0.22585 -0.022566,-0.46105 0.043343,-0.67756 0.3178614,-1.04413 2.7929292,-2.10957 3.083959,-2.28051 0.8777398,-0.51556 2.0705413,-0.60906 3.0289534,-0.86088 3.49723317,-0.6138 7.023701,-1.04109 10.5308488,-1.59414 5.0752259,-0.67898 10.1265939,-1.52136 15.2081719,-2.154 5.827083,-0.68729 11.678661,-1.20766 17.545969,-1.37333 6.092888,-0.1054 12.198339,-0.27295 18.275535,0.30906 6.515232,0.5816 13.008678,1.43897 19.549184,1.71108 1.760206,0.0942 5.075933,0.26423 6.838079,0.38865 4.049728,0.28592 8.080147,0.77841 12.126304,1.10404 2.124575,0.12705 2.723549,0.18894 4.757224,0.22 1.20513,0.0184 2.53648,-0.10766 3.73695,0.0881 0.19477,0.0318 0.37958,0.10818 0.56937,0.16227 0.12389,0.0846 0.2591,0.15462 0.37168,0.25378 0.52152,0.45933 0.56878,1.2328 0.68637,1.86523 0.0707,0.68334 0.18605,1.42463 0.0381,2.10619 -0.044,0.20259 -0.0378,0.4614 -0.20172,0.58828 -0.84268,0.65222 -1.81515,1.1168 -2.72273,1.6752 -0.22543,0.0399 -0.44826,0.0995 -0.67631,0.11977 -0.51286,0.0455 -1.60917,-2.1e-4 -2.05928,-0.0192 -1.915877,-0.0807 -3.830013,-0.20909 -5.740741,-0.3695 -2.677615,-0.27134 -5.344054,-0.57185 -8.005188,-0.97906 -0.536982,-0.0822 -5.425115,-0.88761 -5.887312,-0.95216 -1.105927,-0.15445 -2.21736,-0.26652 -3.32604,-0.39979 -1.16264,-0.0805 -2.323574,-0.19138 -3.487915,-0.24153 -2.26653,-0.0976 -5.18827,-0.0671 -7.449357,-0.0413 -4.486312,0.0512 -8.97209,0.15882 -13.455639,0.32433 -10.939748,0.42437 -21.875634,0.96219 -32.804721,1.60468 -1.401614,0.0881 -9.429775,0.5952 -10.912775,0.67757 -4.1561554,0.23082 -8.3225525,0.35658 -12.4633691,0.80943 0,0 2.02094105,-2.24449 2.02094105,-2.24449 z"
       inkscape:connector-curvature="0" />
    <path
       style="fill:#000000;fill-opacity:1;stroke-width:1.5;stroke-linecap:round;stroke-miterlimit:4;stroke-dasharray:none"
       id="path4748"
       d="m -3.473732,174.89541 c 0.2421009,0.0292 0.4825701,0.0799 0.7263029,0.0876 1.6514794,0.0526 3.31621502,-0.18611 4.945744,-0.40814 1.519758,-0.20707 3.0371346,-0.43128 4.5561663,-0.64361 3.2933808,-0.46125 6.6176898,-0.61738 9.9287098,-0.89684 1.931436,-0.16301 3.150937,-0.29117 5.061032,-0.48116 1.603386,-0.18018 3.212364,-0.32569 4.805569,-0.58652 0.172479,-0.0282 0.628988,-0.23327 0.514455,-0.10126 -3.235808,3.72976 -1.900958,3.5557 -4.411875,3.43021 -4.683402,-0.15043 -9.357663,0.29072 -14.0108196,0.76691 -0.8355023,0.0859 -1.6710535,0.17137 -2.5065066,0.25777 -2.0322182,0.21017 -2.2896967,0.2502 -4.2640921,0.41472 -1.55319179,0.12942 -3.1082354,0.22542 -4.660873,0.36168 -0.8072644,0.0735 -1.605634,0.21233 -2.4059118,0.33602 -0.3645172,0.0563 -0.6441199,0.0922 -0.9644689,0.27051 0.3096739,1.67322 0.045664,0.48665 3.2981844,-3.1585 0.058205,-0.0652 -0.1243857,-0.16497 -0.091277,-0.24588 0.0064,-0.0156 0.6906606,-0.009 0.7492585,-0.008 0.2529746,-0.0351 0.5244126,0.0339 0.7762325,-0.008 0.060903,-0.0101 0.2272258,-0.096 0.1723303,-0.0678 -3.8452513,1.97771 -4.2159188,0.58493 -3.6198001,2.24851 0.03392,0.0779 0.1380982,0.15696 0.101759,0.2338 -0.030778,0.0651 -0.090546,-0.11214 -0.1312058,-0.17154 -0.095293,-0.13923 -0.1906035,-0.27874 -0.2764126,-0.424 -0.3832159,-0.64873 -0.5857391,-1.2166 -0.8108828,-1.93355 -0.3579749,-1.52983 -0.668873,-3.06958 -1.1194071,-4.57585 -0.5033894,-1.87384 -0.5450512,-1.44801 3.6549401,-3.27378 0.3762724,-0.16356 0.6248368,0.54499 0.9910884,0.72991 0.513882,0.25945 1.070817,0.42757 1.62309834,0.58999 2.12248906,0.62417 3.66924346,0.85004 5.89400456,1.27096 3.2089309,0.50459 6.4334633,0.90984 9.6632313,1.25507 0.832571,0.089 1.667756,0.15274 2.49991,0.24555 1.459093,0.16273 2.91379,0.36283 4.371671,0.53607 0.588497,0.0604 1.176221,0.12893 1.76549,0.18129 0.461397,0.041 0.923555,0.12305 1.386131,0.0987 0.231326,-0.0122 0.859475,-0.33006 0.663554,-0.20647 -1.195793,0.75433 -2.524654,1.29413 -3.679883,2.10922 -0.148565,0.10482 0.105819,0.52335 -0.07522,0.54025 -0.393054,0.0367 -0.73558,-0.28683 -1.10337,-0.43025 -0.601802,-0.18921 -1.196258,-0.4036 -1.805407,-0.56763 -2.245946,-0.60476 -3.275056,-0.73258 -5.641715,-1.17935 -3.3550304,-0.63335 -6.7052475,-1.29069 -10.0614082,-1.91812 -0.980243,-1.11547 -2.7520207,-0.0133 -3.86707281,-0.70093 -0.36663019,-0.22609 -1.04153019,-0.86825 -0.67834919,-1.09985 1.60121877,-1.02106 3.4982268,-1.59232 5.3731905,-1.89395 0.9539026,-0.15345 1.8915883,0.39549 2.8414107,0.57245 1.2543628,0.2337 2.5137408,0.43963 3.770611,0.65945 5.70165,0.95402 11.39094,1.98398 17.122783,2.74552 2.591745,0.34434 3.516254,0.4303 5.990733,0.69681 0.530225,0.0154 1.060447,0.0307 1.590672,0.0461 0.118658,-0.0894 0.472588,-0.36041 0.355976,-0.26832 -1.290982,1.01951 -2.389021,2.35385 -3.879162,3.05064 -0.50473,0.23602 -1.059603,-0.34708 -1.598316,-0.48936 -2.370939,-0.62618 -3.125341,-0.70853 -5.658863,-1.17314 -4.80993,-0.79957 -9.667684,-1.24674 -14.4889517,-1.96689 -1.8463731,-0.2758 -3.9122643,-0.63329 -5.7634718,-0.94632 -3.1246476,-0.51419 -6.2304743,-1.13662 -9.3509163,-1.67354 -0.2611935,0.47644 -0.9870331,-0.51506 -1.3003204,-0.20763 -0.1096989,0.10765 0.069624,0.50608 0.195336,0.41766 1.2565986,-0.88384 2.2020803,-2.17284 3.4902746,-3.00996 0.1884489,-0.12246 0.3624739,0.26737 0.5570336,0.37987 0.3222788,0.18636 0.6606025,0.34346 0.9909036,0.5152 0.46187341,0.19209 0.91430249,0.40869 1.38562012,0.57629 1.17849218,0.41906 2.65867438,0.78583 3.85601788,1.09022 2.2170644,0.56364 4.4388841,1.10778 6.6548794,1.67589 1.052799,0.28109 2.298767,0.58908 3.3497,0.94789 0.286935,0.098 0.612118,0.14359 0.844169,0.33873 0.235306,0.19789 0.725335,0.58584 0.488765,0.78221 -3.509934,2.91351 -3.092621,2.70307 -5.727194,2.26648 -2.6540147,-0.44767 -5.3262281,-0.77385 -8.0080804,-0.99803 -0.58911067,-0.0493 -1.17791373,-0.10949 -1.76872149,-0.13005 -0.48244779,-0.0168 -0.96540421,0.0121 -1.44810631,0.0181 -0.6650405,0.0991 -1.2928527,0.11071 -1.8854382,0.46361 -0.1822309,0.10853 -0.649906,0.53492 -0.4608856,0.43871 1.073268,-0.54632 2.0834283,-1.20878 3.13320934,-1.79897 0.0768655,-0.0432 -0.15917944,0.22711 -0.21282764,0.15713 -0.1288228,-0.16805 -0.094306,-0.41286 -0.1414586,-0.61928 0.064102,-0.0724 0.096047,-0.20816 0.1923069,-0.2171 0.34672733,-0.0322 0.69312927,0.0678 1.03960623,0.10264 1.47413967,0.14808 2.51879117,0.26584 4.04944147,0.37733 2.6812065,0.19529 3.3016703,0.19264 6.0236913,0.29203 1.055321,0.029 2.110509,0.0633 3.165964,0.0869 1.045864,0.0234 2.092253,0.0226 3.137911,0.0539 1.819543,0.0543 4.403458,0.2006 6.227682,0.29105 1.674026,0.083 3.976448,0.18948 5.657846,0.26808 0.90361,0.0344 1.807027,0.0744 2.710828,0.10335 2.005909,0.0643 3.132693,0.0991 5.140301,0.0373 0.888884,-0.0273 1.776466,-0.0873 2.664616,-0.13258 6.214393,-0.31698 -0.573773,0.0193 5.88917,-0.2979 4.257545,-0.15143 8.515138,-0.34795 12.775713,-0.38987 1.954398,-0.0192 3.864605,-0.004 5.818296,0.005 3.522782,0.028 7.04523,0.045 10.567561,-0.0252 0,0 -2.888263,3.18078 -2.888263,3.18078 v 0 c -3.414159,-0.17111 -6.831213,-0.25426 -10.248945,-0.31745 -2.037304,-0.0281 -3.697597,-0.0604 -5.740982,-0.05 -4.252727,0.0215 -8.504237,0.17465 -12.749207,0.42835 -2.893978,0.17936 -5.794081,0.43257 -8.693557,0.50406 -2.267447,0.0559 -2.909784,-0.002 -5.15784,-0.10318 -0.901079,-0.0406 -1.802014,-0.0843 -2.703022,-0.12645 -2.880427,-0.1597 -5.758423,-0.37348 -8.640303,-0.50542 -2.743094,-0.1256 -3.529825,-0.12164 -6.273322,-0.18423 -1.0624278,-0.0242 -2.1248085,-0.0505 -3.1872129,-0.0758 -2.9098118,-0.0854 -5.8189868,-0.13553 -8.7293062,-0.19595 -0.6030046,-0.0125 -1.2061054,-0.0236 -1.8088098,-0.0464 -0.4400377,-0.0166 -0.8903549,0.0286 -1.3191008,-0.0718 -0.3000015,-0.0703 -0.5458714,-0.28598 -0.8188071,-0.42896 -0.1629357,-0.33921 -0.4195074,-0.64774 -0.4888071,-1.01761 -0.034154,-0.18229 0.052145,-0.40812 0.2009349,-0.51884 1.2484706,-0.92901 2.5745974,-1.75266 3.91474,-2.54371 0.209682,-0.12377 0.4669985,-0.14226 0.7068326,-0.18427 0.77449557,-0.13567 1.21333346,-0.0938 2.0247621,-0.0923 3.771608,0.28715 7.5127909,0.91377 11.2920113,1.12991 0.461924,1.3e-4 1.639116,-0.38586 1.385772,5.3e-4 -0.718117,1.09484 -2.181829,1.50311 -3.027552,2.50268 -0.149933,0.1772 0.657009,0.31441 0.499655,0.48506 -0.161078,0.1747 -0.401157,-0.25718 -0.615825,-0.35907 -1.2253463,-0.58162 -1.6416523,-0.63324 -3.0687516,-1.05879 -2.2119428,-0.58806 -4.432302,-1.12347 -6.658131,-1.65611 -1.3649273,-0.32663 -2.774381,-0.63981 -4.1128508,-1.07259 -0.5222361,-0.16886 -1.0281295,-0.38461 -1.5421943,-0.57691 -0.3955978,-0.18347 -0.800491,-0.3481 -1.1867938,-0.55041 -0.282788,-0.14809 -0.9641522,-0.21571 -0.8172958,-0.49914 3.1645674,-6.10765 1.5912131,-4.06005 3.3769977,-3.26775 0.3699886,0.16416 0.8094381,0.13646 1.1755501,0.30435 2.98124832,0.69345 5.9602216,1.39664 8.9512702,2.04727 2.2069375,0.46301 3.2691263,0.70543 5.5515313,1.09638 4.820506,0.8257 9.692329,1.29396 14.538522,1.93648 2.767237,0.38932 3.42492,0.46395 6.056252,0.89665 0.644921,0.10605 2.018252,-0.30961 1.931365,0.33816 -0.190264,1.41852 -1.532914,2.42721 -2.449697,3.52625 -0.374558,0.44902 -1.430015,-3.46738 -1.673122,-0.5271 -4.625034,-0.84276 -9.254764,-1.65669 -13.893463,-2.42125 -1.493712,-0.24619 -2.985859,-0.50292 -4.483279,-0.72545 -1.475873,-0.21932 -2.9572317,-0.39998 -4.4358475,-0.59997 -1.3230796,-0.14707 -2.6437039,-0.31821 -3.9692389,-0.4412 -1.0378011,-0.0963 -2.7215432,0.74691 -3.11927279,-0.21648 -0.38852196,-0.94108 1.72032149,-1.26054 2.12352719,-2.19543 0.1545259,-0.35829 -1.0971936,-0.5733 -0.8137521,-0.84146 0.8729219,-0.82586 2.7123349,2.96927 3.4498416,1.0464 2.7967027,0.64418 3.4428567,0.82738 6.3908555,1.35063 3.877374,0.68821 7.823159,1.03447 11.638113,2.04537 0.03001,0.01 3.166565,0.77269 2.524357,1.6408 -0.902809,1.22038 -2.48225,1.76497 -3.829074,2.46529 -0.206208,0.10722 -0.457903,-0.0801 -0.687403,-0.11682 -1.000566,-0.1601 -2.003857,-0.30289 -3.0037,-0.46764 -5.415827,-0.78223 -10.8276213,-1.59122 -16.2412351,-2.3885 -2.50151286,-0.35425 -3.9661142,-0.51364 -6.3685901,-1.01763 -0.6785554,-0.14235 -1.3374034,-0.37277 -2.0188584,-0.50051 -0.1575908,-0.0296 -0.5971254,0.14151 -0.4799359,0.0321 1.0501895,-0.98062 2.1725694,-1.88913 3.3502597,-2.71227 0.1007129,-0.0704 0.0019,0.24574 0.00287,0.36861 0.3889596,1.71423 -0.1451375,-0.60712 0.3441684,1.39597 0.2534398,1.03752 0.4500612,2.08873 0.716104,3.12338 0.183632,0.54678 0.3594768,1.05374 0.6861703,1.53407 0.1793522,0.26369 0.42778349,0.47832 0.59130885,0.75211 0.1195727,0.2002 0.19667635,0.42289 0.29501454,0.63433 0.0203758,0.20352 0.22965105,0.49464 0.0611276,0.61055 -3.20258219,2.20258 -2.83779659,2.13284 -5.03157949,2.02754 -0.224767,-0.0107 -0.7176294,0.005 -0.9175798,-0.0919 -1.9244802,-0.93554 1.5437879,-2.50285 2.7548136,-3.69117 0.052077,-0.0511 0.1396818,0.0422 0.2095225,0.0633 1.1188706,-0.032 2.2334009,-0.16913 3.35362876,-0.18174 3.70687904,-0.12267 7.40859634,-0.3502 11.10026154,-0.71498 4.802808,-0.43406 9.609351,-0.84397 14.424764,-1.10988 2.438691,-0.22231 1.794203,-0.43905 -1.524041,3.36158 -0.07812,0.0895 -0.235469,-0.0385 -0.354249,-0.0385 -0.34199,-2.5e-4 -0.683668,0.0215 -1.025284,0.0375 -0.507469,0.0237 -1.014784,0.051 -1.521882,0.0817 -0.660818,0.04 -1.321203,0.0868 -1.981805,0.13018 -4.994498,0.38765 -9.9922496,0.78729 -14.9601977,1.44079 -6.0891089,0.88027 1.4952686,-0.2251 -4.60488376,0.69259 -2.08318174,0.31338 -4.18924384,0.63372 -6.30283684,0.53009 0,0 3.2223673,-3.33535 3.2223673,-3.33535 z"
       inkscape:connector-curvature="0" />
    <path
       style="fill:#000000;fill-opacity:1;stroke-width:1.5;stroke-linecap:round;stroke-miterlimit:4;stroke-dasharray:none"
       id="path4750"
       d="m 102.00553,177.0656 c -3.475066,-0.23156 -6.94764,-0.49357 -10.415597,-0.81504 -0.823711,-0.0922 -1.647568,-0.18301 -2.471132,-0.27647 -1.683033,-0.191 -3.155182,-0.35095 -4.829556,-0.59962 -2.298263,-0.34132 -4.585983,-0.75019 -6.884852,-1.08995 -3.572015,-0.54129 -7.182625,-0.68116 -10.788285,-0.78083 -1.023689,-0.021 -3.027751,-0.0534 -4.033406,-0.10999 -0.46019,-0.0259 -3.761571,-0.30097 -4.240019,-0.33843 -1.63398,-0.12793 -2.143416,-0.15881 -3.754133,-0.26877 -3.157564,-0.22325 -6.322997,-0.24844 -9.486826,-0.26235 -2.775591,-0.002 -5.551009,-0.013 -8.326612,-0.0216 -2.006108,-0.0594 -3.985856,0.28431 -5.968302,0.52757 -3.729754,0.45767 0.507744,-0.10528 -3.376647,0.42253 -3.247156,0.4453 -6.401328,1.37755 -9.623496,1.95477 -0.700347,0.12546 -1.406762,0.2143 -2.110144,0.32145 -4.264386,0.50621 -8.5174499,1.12273 -12.742162,1.89385 -2.21072598,0.50087 -4.4516134,0.83319 -6.6925366,1.16198 -1.175136,0.27902 -2.3805129,0.43422 -3.528369,0.81753 -0.5867808,0.18166 -1.1955365,0.35501 -1.8109311,0.40433 -0.289505,-0.0123 -0.5764755,-0.0359 -0.866998,-0.0376 0,0 3.1207058,-3.49022 3.1207058,-3.49022 v 0 c 0.2454461,-0.008 0.4873914,-0.0183 0.7198368,-0.10709 0.5428165,-0.14345 1.0943349,-0.2566 1.634503,-0.41181 1.1914568,-0.24353 2.3886465,-0.46341 3.59380671,-0.62772 2.15927769,-0.27378 4.31269089,-0.58441 6.46093159,-0.93568 4.2223409,-0.61729 8.4491768,-1.20262 12.6727048,-1.81157 2.183674,-0.39311 1.942857,-0.33024 4.073672,-0.78913 2.578886,-0.55538 5.139865,-1.21103 7.759552,-1.55633 3.16121,-0.44751 6.333736,-0.95831 9.536306,-0.90629 2.787938,-0.0129 5.575652,-0.0364 8.363529,0.005 3.153222,0.0616 6.306728,0.18119 9.451705,0.42304 1.923235,0.16805 3.844298,0.376 5.770502,0.50794 1.864683,0.12772 2.336228,0.13397 4.194537,0.15684 0.669941,0.008 1.339961,0.008 2.009942,0.0118 1.336688,0.0288 2.264619,0.0353 3.591708,0.11599 2.427335,0.14766 4.845936,0.44552 7.242043,0.85676 4.66363,0.8069 9.335545,1.5848 14.05764,1.96674 3.595643,0.26368 7.211109,0.5422 10.813429,0.22637 0,0 -3.11705,3.46185 -3.11705,3.46185 z"
       inkscape:connector-curvature="0" />
    <path
       style="fill:#000000;fill-opacity:1;stroke-width:1.5;stroke-linecap:round;stroke-miterlimit:4;stroke-dasharray:none"
       id="path4752"
       d="m -2.7592213,175.13991 c 3.8964296,-0.007 7.7892952,-0.15766 11.6821478,-0.30954 4.5988775,-0.15033 9.1998345,-0.007 13.7981675,0.0891 3.9782,0.0591 7.95017,-0.15076 11.921336,-0.34836 0.630872,-0.0232 1.261824,-0.0444 1.892617,-0.0698 1.345433,-0.054 2.499622,-0.10048 3.843049,-0.20467 1.895629,-0.14701 3.782243,-0.3929 5.670325,-0.61225 2.543178,-0.28098 5.047795,-0.81614 7.557299,-1.30019 0.461648,-0.089 3.349252,-0.63248 3.841054,-0.72513 2.507914,-0.44102 5.026023,-0.84339 7.561662,-1.08895 1.453518,-0.14076 2.409579,-0.19061 3.866592,-0.28452 3.975418,-0.19092 7.95963,-0.11324 11.927729,0.17568 2.229032,0.19521 4.449151,0.48303 6.636104,0.95909 0.977421,0.14826 1.890459,0.54233 2.860614,0.72337 0.357386,0.0667 0.719125,0.10748 1.078685,0.16121 0.476454,0.0405 0.952908,0.0809 1.429362,0.1214 0,0 -2.921791,3.10408 -2.921791,3.10408 v 0 c -0.517158,-0.0329 -1.034315,-0.0658 -1.551472,-0.0988 -0.424482,-0.0486 -0.850987,-0.082 -1.273448,-0.14585 -0.97514,-0.14738 -1.902729,-0.52391 -2.867789,-0.71826 -2.060903,-0.50142 -4.157253,-0.84231 -6.266987,-1.06022 -0.558753,-0.0482 -1.116645,-0.10782 -1.67626,-0.14473 -3.3513,-0.2211 -6.718728,-0.18717 -10.068187,0.042 -3.799403,0.28111 -7.584225,0.73464 -11.324989,1.46961 -3.81313,0.69243 -7.601609,1.55081 -11.459361,1.96831 -1.351081,0.15685 -2.451515,0.29371 -3.805269,0.41482 -2.55506,0.22857 -5.118878,0.31651 -7.680505,0.4351 -3.965839,0.17955 -7.936388,0.2963 -11.906619,0.20888 -4.556273,-0.0803 -9.115061,-0.30071 -13.671149,-0.12366 -2.3598568,0.10026 -2.7023096,0.10667 -5.0590705,0.2393 -2.00620603,0.1129 -4.0375438,0.19088 -6.0217415,0.53505 -0.2987813,0.0518 -0.590292,0.13921 -0.8854379,0.20882 0,0 2.8733326,-3.6209 2.8733326,-3.6209 z"
       inkscape:connector-curvature="0" />
    <path
       style="fill:#000000;fill-opacity:1;stroke-width:1.5;stroke-linecap:round;stroke-miterlimit:4;stroke-dasharray:none"
       id="path4754"
       d="m 103.40762,178.01822 c -0.16095,-0.0659 -0.31897,-0.13934 -0.48283,-0.19755 -0.57548,-0.20443 -1.20859,-0.37207 -1.79029,-0.54216 -0.97841,-0.28607 -1.788122,-0.54258 -2.78726,-0.78559 -0.542591,-0.13197 -1.091062,-0.23849 -1.636593,-0.35774 -2.919545,-0.52338 -5.865241,-0.89845 -8.810948,-1.24125 -2.258983,-0.24563 -4.532788,-0.28403 -6.802768,-0.30579 -1.829012,0.0417 -3.665537,-0.0547 -5.490165,0.0929 -1.336783,0.099 -2.649167,0.38785 -3.966924,0.62127 -1.399352,0.25845 -2.826867,0.25827 -4.242144,0.35436 -1.61516,0.13727 -3.230473,0.23225 -4.851098,0.27381 -2.001457,0.0464 -4.002929,0.0357 -6.004481,0.006 -2.793304,-0.009 -5.586928,-0.047 -8.380198,-0.0254 -1.66928,-0.003 -3.327358,0.21158 -4.990383,0.31949 -0.77796,0.0505 -1.751994,0.0727 -2.526178,0.0961 -0.333677,0.007 -2.511235,0.0565 -2.821461,0.0502 -1.116214,-0.0226 -2.297562,-0.13701 -3.407548,-0.22571 -2.263224,-0.18087 -1.336238,-0.11163 -3.544514,-0.26024 -2.974377,-0.19942 -5.954967,-0.30547 -8.935882,-0.26638 -2.125023,0.0421 -4.223636,0.4269 -6.339962,0.57359 -0.371671,0.0258 -0.744605,0.0278 -1.116908,0.0417 -1.45429,-0.186 -0.748383,-0.0592 -2.119247,-0.37168 0,0 3.157927,-3.11684 3.157927,-3.11684 v 0 c 1.201887,0.19925 0.582819,0.13538 1.858323,0.18045 2.487769,-0.13734 4.95997,-0.50266 7.454765,-0.52074 2.974749,0.0438 5.948266,0.19364 8.913928,0.4296 1.75787,0.14528 3.519471,0.30229 5.283935,0.34067 0.967317,0.021 2.105224,-0.0122 3.078856,-0.0465 0.462563,-0.0163 0.924901,-0.0385 1.38735,-0.0577 2.510296,-0.14375 5.019477,-0.38071 7.536138,-0.35208 2.807015,0.0235 5.614498,-0.0121 8.421529,-0.0241 2.014706,-0.0358 4.030133,-0.0468 6.043861,-0.12102 1.617358,-0.0796 3.229731,-0.22108 4.845566,-0.32523 1.400159,-0.089 2.798442,-0.201 4.174548,-0.49003 1.337971,-0.21633 2.677334,-0.43462 4.036644,-0.45698 1.830899,-0.0399 3.66231,0.002 5.493081,0.0345 2.302902,0.0465 4.609007,0.11775 6.894237,0.43086 2.929398,0.43166 5.86055,0.87314 8.768583,1.4304 1.539661,0.32591 3.068461,0.68916 4.603851,1.03374 0.44718,0.10036 1.41659,0.32192 1.91349,0.38909 0.14966,0.0202 0.30173,0.0139 0.4526,0.0209 0,0 -3.27143,3.37144 -3.27143,3.37144 z"
       inkscape:connector-curvature="0" />
    <path
       style="fill:#000000;fill-opacity:1;stroke-width:1.5;stroke-linecap:round;stroke-miterlimit:4;stroke-dasharray:none"
       id="path4756"
       d="m -3.7972552,159.26024 c 0.4052368,0.29583 0.7937899,0.61598 1.2157102,0.88749 4.1734025,2.68555 9.0080069,4.65831 13.734196,6.10593 1.570105,0.48092 3.167934,0.86616 4.751901,1.29924 6.005748,1.3014 3.080282,0.73552 8.771953,1.72047 0,0 -2.413557,2.38782 -2.413557,2.38782 v 0 c -5.558774,-1.2074 -2.681334,-0.55887 -8.629975,-1.95599 -3.8505412,-1.03222 -5.7041673,-1.45278 -9.4532014,-2.75623 -3.9125349,-1.36029 -7.6709336,-3.10779 -11.4892777,-4.69997 0,0 3.5122509,-2.98876 3.5122509,-2.98876 z"
       inkscape:connector-curvature="0" />
    <path
       style="fill:#000000;fill-opacity:1;stroke-width:1.5;stroke-linecap:round;stroke-miterlimit:4;stroke-dasharray:none"
       id="path4766"
       d="m -1.4385975,151.57156 c 0.61951839,1.59127 1.27064537,3.16996 1.97365056,4.7262 0.59610384,1.25847 1.25839714,2.51816 2.23097464,3.5325 0.1393997,0.14539 0.2954962,0.27379 0.4432443,0.41068 0.1373248,0.0815 0.2618634,0.19001 0.4119739,0.24447 0.2329834,0.0845 0.4640564,0.0451 0.6511089,-0.11722 0.102996,-0.0894 0.3717401,-0.38226 0.2477207,-0.32556 -2.4929284,1.13965 -3.0892839,2.23486 -2.165048,0.82514 0.04212,-0.24843 0.1238524,-0.49334 0.1263603,-0.7453 0.014405,-1.44733 -0.9180905,-2.80308 -1.8028543,-3.86354 -0.25579906,-0.30659 -0.54184959,-0.58663 -0.81277438,-0.87994 -0.76277953,-0.68179 -0.82982973,-0.7888 -1.64661732,-1.34685 -0.2296627,-0.15692 -0.4573126,-0.32162 -0.7090023,-0.44002 -0.1669146,-0.0785 -0.3496499,-0.14523 -0.5341105,-0.14477 -0.1160219,2.6e-4 -0.4209672,0.19535 -0.3155672,0.14686 0.9433033,-0.43404 1.8861864,-0.869 2.82927967,-1.3035 -0.10006616,0.0778 -0.22767467,0.1295 -0.30019849,0.23347 -0.69445308,0.99556 0.47763029,1.92576 1.10359905,2.52844 1.38466157,1.1729 2.63760277,2.50488 4.14575507,3.52427 0.636892,-1.32056 -0.00502,0.14204 -2.9000057,1.32057 -0.1082952,0.0441 0.034057,-0.23696 0.007,-0.35071 -0.042653,-0.17932 -0.117678,-0.35234 -0.2119088,-0.51075 -0.2680718,-0.45067 -0.4505591,-0.5273 -0.86007401,-0.84162 -0.56661372,-0.29946 -0.54602634,-0.32107 -1.15542818,-0.51491 -0.1840784,-0.0585 -0.36707021,-0.13724 -0.55983611,-0.14967 -0.1362611,-0.009 -0.276345,0.0301 -0.4001213,0.0878 -0.1033868,0.0481 -0.3637731,0.27125 -0.2616489,0.22047 0.93178109,-0.4633 1.83891545,-0.97459 2.75837315,-1.46189 -0.0767634,0.0625 -0.16820729,0.11049 -0.23029013,0.18762 -0.59044276,0.73357 0.16944932,1.25826 0.71980458,1.65903 0.1663706,0.0976 0.324849,0.21005 0.499112,0.29269 0.1302915,0.0618 0.7560814,0.27529 0.9220272,0.27624 0.10556,5.3e-4 0.3950936,-0.14743 0.299811,-0.102 -3.0196381,1.43995 -3.48878615,2.09883 -2.55899593,0.98182 0.0225676,-0.20818 0.0772407,-0.41536 0.0677029,-0.62454 -0.0335398,-0.73558 -0.46505647,-1.89613 -0.97671478,-2.44772 -0.0627664,-0.0677 -0.15667157,-0.0976 -0.23500734,-0.1464 -0.0546879,0.007 -0.10937578,0.0145 -0.16406367,0.0218 0,0 2.92200352,-2.46991 2.92200352,-2.46991 v 0 c 0.1166974,0.0908 0.2333948,0.18153 0.3500923,0.27229 0.1182286,0.13677 0.2507495,0.26238 0.3546858,0.4103 0.1184204,0.16853 0.2140794,0.3523 0.3094405,0.53487 0.5618107,1.07561 0.9291902,2.23544 0.9727885,3.45498 -0.301345,2.08299 0.067258,1.13057 -3.61949519,2.7985 -0.15729076,0.0712 -0.33594797,-0.0818 -0.49918262,-0.13804 -0.59536422,-0.20498 -1.14301689,-0.52321 -1.63901139,-0.90838 -0.1996533,-0.17152 -0.4155536,-0.32577 -0.5989597,-0.51456 -0.5290933,-0.54464 -0.931052,-1.22059 -0.9370911,-2.001 -0.00287,-0.37147 0.1542187,-0.73244 0.273082,-1.0733 1.1107707,-0.66829 2.18004754,-1.41098 3.3323122,-2.00488 0.15142884,-0.0781 0.34214149,-0.002 0.51050406,0.0242 0.93022994,0.14369 1.78328094,0.63844 2.54490074,1.16126 0.2103284,0.19143 0.4400942,0.36346 0.630985,0.57428 0.3822144,0.4221 0.6559415,0.88352 0.8547533,1.41568 0.09832,0.26317 0.4221084,0.6094 0.2271028,0.81164 -0.9143421,0.94823 -2.0573148,1.67148 -3.219459,2.29162 -0.1774706,0.0947 -0.3521744,-0.1945 -0.5282616,-0.29175 -1.41132631,-1.19423 -2.6990111,-2.52677 -4.1459072,-3.68077 -0.478881,-0.45772 -0.9522256,-0.85439 -1.315176,-1.41859 -0.6722454,-1.045 -0.6297043,-1.95294 -0.2607029,-3.08414 1.1695183,-0.60878 2.285863,-1.33297 3.50855473,-1.82634 0.18368262,-0.0741 0.38478616,0.10139 0.56552518,0.18242 1.1428543,0.51238 2.14185479,1.57756 3.04586039,2.40823 1.3839187,1.56942 2.8428582,3.30591 3.082404,5.47248 0.039388,0.35626 0.00832,0.7168 0.01248,1.0752 -0.077941,0.3024 -7.409e-4,0.69936 -0.2338242,0.90721 -1.0624797,0.9475 -2.8035825,2.85378 -4.5320688,2.18857 -0.45899649,-0.17664 -0.65314276,-0.38715 -1.03025885,-0.69479 -1.19393805,-1.27758 -2.11303535,-2.721 -2.79818365,-4.33277 -0.7092228,-1.56472 -1.328029,-3.17813 -2.1856417,-4.67023 0,0 3.4085175,-1.77742 3.4085175,-1.77742 z"
       inkscape:connector-curvature="0" />
    <path
       style="fill:#000000;fill-opacity:1;stroke-width:1.5;stroke-linecap:round;stroke-miterlimit:4;stroke-dasharray:none"
       id="path4768"
       d="m -8.5736463,178.79053 c 0.090288,-1.45085 0.072393,-2.90734 0.049984,-4.36028 -0.012819,-0.81685 -0.02173,-1.63354 -0.1040878,-2.44673 -0.111396,-0.75826 -0.1830205,-1.51793 -0.2169557,-2.28374 -0.033829,-1.1249 -0.018211,-2.25048 -0.040608,-3.3758 3.968e-4,-0.6411 -0.011843,-1.33057 0.3045293,-1.91165 0.051143,-0.0939 0.1202089,-0.17694 0.1803135,-0.26541 1.015124,-1.08974 0.2041361,-0.2603 3.3480033,-2.02768 0.062161,-0.0349 0.2639762,-0.10487 0.2027034,-0.0684 -0.9440804,0.56209 -1.9125615,1.0826 -2.8549636,1.64749 -0.036338,0.0218 0.087159,0.004 0.1265293,-0.012 0.044345,-0.0176 0.077151,-0.0562 0.1157266,-0.0843 0.1526537,-0.0915 0.1809663,-0.18751 0.2511258,-0.34181 0.050471,-0.11099 0.1259597,-0.20559 0.1768782,-0.3168 0.098942,-0.14576 0.1054444,-0.32301 0.1490223,-0.48666 -0.00602,-0.0106 -0.010012,-0.041 -0.018071,-0.0318 -0.034639,0.0394 0.033522,0.10678 0.016637,0.15643 -0.034595,0.10172 -0.4533567,-0.006 -0.4976185,-0.0111 -0.5867895,1.18722 -0.1311233,0.14774 2.6390713,-1.23426 0.1097558,-0.0548 -0.2059104,0.14103 -0.2799289,0.23883 -0.3524615,0.46573 -0.4194929,1.0977 -0.5220023,1.65003 -0.1316183,1.40155 0.010567,2.81446 0.1473645,4.21068 0.1109747,1.19452 0.4222869,2.35615 0.7163832,3.51527 0,0 -3.3496427,1.58013 -3.3496427,1.58013 v 0 c -0.3051408,-1.21228 -0.6667654,-2.41517 -0.7746421,-3.6663 -0.1577107,-1.48347 -0.3137932,-2.97316 -0.2737043,-4.46722 0.087866,-0.68734 0.1632604,-1.39737 0.3553026,-2.06589 0.054731,-0.19053 0.046769,-0.44139 0.207585,-0.55729 2.9870219,-2.15278 2.1158046,-2.17354 3.8299294,-1.92264 0.637387,0.12671 0.9644729,0.24107 1.2591187,0.87554 0.1493975,0.3871 0.1886781,0.77183 0.1224767,1.18346 -0.040317,0.16209 -0.063055,0.33757 -0.1417979,0.48712 -0.021704,0.0412 -0.063447,0.0708 -0.080758,0.11405 -0.056997,0.1424 -0.044979,0.30738 -0.1318262,0.44084 -0.032496,0.0639 -0.066812,0.12696 -0.097489,0.19178 -0.036683,0.0775 -0.032424,0.18864 -0.1045234,0.23505 -1.0245116,0.65959 -2.1008059,1.23507 -3.1476034,1.85868 -0.050275,0.03 -0.1939282,0.13071 -0.1431009,0.1017 0.9305766,-0.53102 1.8703456,-1.04699 2.7830605,-1.60816 0.061273,-0.0377 -0.1425917,0.019 -0.2138874,0.0285 -0.179742,0.0467 -0.4491005,0.0845 -0.5687504,0.25069 -0.1898393,0.26374 -0.1793208,0.66281 -0.218105,0.96227 -0.017984,1.10828 -0.00796,2.21615 0.035714,3.32384 0.03573,0.74391 0.090503,1.48685 0.2353876,2.21888 0.030121,0.3545 0.076117,0.71277 0.083482,1.06859 0.010433,0.50398 -0.048806,1.00864 -0.033884,1.51278 -0.02195,1.44011 -0.041848,2.88402 0.049984,4.32191 0,0 -3.5723623,1.3713 -3.5723623,1.3713 z"
       inkscape:connector-curvature="0" />
    <path
       style="fill:#000000;fill-opacity:1;stroke-width:1.5;stroke-linecap:round;stroke-miterlimit:4;stroke-dasharray:none"
       id="path4770"
       d="m -8.0620432,178.26019 c 0.070548,-1.3816 0.081002,-2.76732 8.466e-4,-4.14846 -0.1739971,-1.90877 -0.3815379,-3.81422 -0.604947,-5.71778 -0.081649,-0.80534 -0.2081152,-1.60734 -0.2501884,-2.4163 0.013869,-0.81324 0.04398,-1.62667 0.00172,-2.43946 -0.00569,-0.0506 -0.011388,-0.10119 -0.017081,-0.15178 0,0 3.6060149,-1.37851 3.6060149,-1.37851 v 0 c -0.00618,0.0544 -0.012356,0.10879 -0.018531,0.16319 -0.044465,0.79999 -0.025889,1.60158 0.00389,2.40186 -0.00169,0.80316 0.014383,1.60619 0.070887,2.40771 0.1317514,1.92178 0.3514818,3.83368 0.6366,5.73887 0.097251,1.39001 0.073094,2.7801 0.1380775,4.17131 0,0 -3.5672759,1.36935 -3.5672759,1.36935 z"
       inkscape:connector-curvature="0" />
    <path
       style="fill:#000000;fill-opacity:1;stroke-width:1.5;stroke-linecap:round;stroke-miterlimit:4;stroke-dasharray:none"
       id="path4772"
       d="m 6.4725173,160.66228 c 0.5943489,0.74029 1.3804959,1.35011 2.2034302,1.81898 0.2836844,0.16163 0.5830668,0.294 0.8746003,0.44099 2.5222532,1.04075 5.2183042,1.56578 7.9017722,1.99274 2.170883,0.31915 4.348386,0.58902 6.525705,0.85944 0,0 -2.59031,2.63726 -2.59031,2.63726 v 0 c -2.137575,-0.35904 -4.287627,-0.6378 -6.424544,-1.00106 -1.454644,-0.26842 -2.898381,-0.55979 -4.334127,-0.91812 -0.8680625,-0.21665 -1.9236749,-0.48769 -2.7735927,-0.79427 -0.3694382,-0.13327 -0.7252232,-0.30171 -1.0878349,-0.45256 -0.3217267,-0.16737 -0.6503268,-0.32213 -0.9651799,-0.5021 -0.939941,-0.53724 -1.81489,-1.20624 -2.5695282,-1.98216 0,0 3.239609,-2.09914 3.239609,-2.09914 z"
       inkscape:connector-curvature="0" />
    <path
       style="fill:#000000;fill-opacity:1;stroke-width:1.5;stroke-linecap:round;stroke-miterlimit:4;stroke-dasharray:none"
       id="path4774"
       d="m 14.184167,161.24556 c 0.600485,1.40116 0.977501,2.87523 1.293357,4.36187 0.115116,0.60693 0.20501,1.2182 0.290074,1.82993 0.0308,0.22148 0.04193,0.47695 0.109472,0.69372 -1.202515,0.44701 -2.386497,0.94745 -3.607543,1.34103 -0.06019,0.0194 0.0228,-0.12457 0.02888,-0.18751 0.01905,-0.19717 0.03715,-0.39457 0.04649,-0.59243 0.04804,-1.01764 0.0085,-2.03198 -0.02857,-3.0491 -0.14062,-1.33838 -0.08445,-2.77733 -0.596579,-4.04835 1.134399,-0.6324 2.209918,-1.38448 3.403197,-1.89719 0.13041,-0.056 0.18572,0.21601 0.292827,0.30915 0.120188,0.10451 0.251232,0.19679 0.386218,0.28133 0.671179,0.42034 1.4061,0.60734 2.159907,0.82514 2.722076,0.59507 5.524674,0.63232 8.298299,0.70495 3.744419,0.0647 7.49012,0.0658 11.234871,0.0273 4.732258,-0.0592 9.464648,-0.10465 14.196909,-0.16372 3.673205,-0.0643 7.349858,-0.0226 11.010995,0.30637 2.398048,0.21545 2.810116,0.30816 5.176507,0.65237 4.472675,0.75549 8.904557,1.74477 13.300643,2.85916 2.726656,0.73391 5.515809,1.34067 8.132657,2.42953 0.372277,0.15491 0.729742,0.34325 1.094613,0.51488 1.058751,0.55517 2.050619,1.27244 2.783036,2.23073 0.304916,0.39896 0.412604,0.65297 0.634552,1.08664 0,0 -3.302984,1.80604 -3.302984,1.80604 v 0 c -0.160049,-0.36661 -0.203218,-0.51583 -0.446735,-0.85139 -0.61858,-0.8524 -1.485916,-1.45727 -2.405042,-1.94696 -0.33315,-0.16153 -0.660032,-0.33668 -0.999455,-0.48457 -2.53646,-1.10517 -5.25375,-1.72161 -7.905681,-2.4722 -4.348774,-1.08769 -8.709854,-2.15982 -13.137949,-2.87646 -0.83797,-0.11936 -1.673783,-0.25499 -2.51391,-0.35807 -4.489645,-0.55091 -9.017373,-0.64702 -13.535252,-0.52843 -4.780558,0.0733 -9.558533,0.24702 -14.339149,0.31936 -3.766003,0.0479 -7.532206,0.0188 -11.298309,-0.009 -2.890886,-0.0549 -5.816447,-0.0734 -8.641869,-0.7628 -0.895435,-0.27649 -1.676849,-0.5275 -2.479493,-1.02154 -0.168931,-0.10398 -0.325642,-0.22673 -0.491867,-0.33499 -0.07286,-0.0474 -0.294877,-0.0801 -0.225028,-0.13189 1.008208,-0.74729 2.107575,-1.36303 3.161363,-2.04454 -0.01125,0.0406 -0.03759,0.0798 -0.03373,0.12169 0.01437,0.15615 0.06272,0.30739 0.08746,0.46223 0.03564,0.22307 0.06777,0.44678 0.09364,0.67118 0.114331,0.99168 0.182476,1.98923 0.256169,2.98441 0.05658,1.01532 0.09556,2.03054 0.17592,3.04431 0.01489,0.18789 0.03042,0.37574 0.04813,0.56338 0.0073,0.0777 0.09735,0.19881 0.02699,0.23254 -1.175335,0.56348 -2.410696,0.99209 -3.616043,1.48813 0.02079,-0.83772 -0.07443,-1.67516 -0.192179,-2.50298 -0.24624,-1.39226 -0.566114,-2.78911 -1.27632,-4.02825 0,0 3.350516,-1.85489 3.350516,-1.85489 z"
       inkscape:connector-curvature="0" />
    <path
       style="fill:#000000;fill-opacity:1;stroke-width:1.5;stroke-linecap:round;stroke-miterlimit:4;stroke-dasharray:none"
       id="path4776"
       d="m 19.721947,162.58038 c 0.431189,0.75397 1.333046,1.24684 1.620008,2.08791 0.07017,0.20565 0.08542,0.42611 0.128135,0.63917 -1.159925,0.59699 -2.267792,1.30836 -3.479774,1.79099 -0.160391,0.0639 -0.315312,-0.14097 -0.46968,-0.21827 -0.555561,-0.27818 -1.11646,-0.56374 -1.654549,-0.87395 -0.43459,-0.26287 -0.796591,-0.62936 -1.033239,-1.08082 -0.04286,-0.0818 -0.177542,-0.19001 -0.110812,-0.25379 0.923398,-0.88258 1.962317,-1.63579 2.943476,-2.45368 0.668485,0.45812 1.306602,0.96994 1.992762,1.40274 0.504789,0.3184 1.00916,0.56776 1.53803,0.84442 0.838627,0.37457 1.704647,0.70268 2.603304,0.90297 1.053047,0.23469 2.128427,0.3085 3.200875,0.38971 3.09337,0.17208 6.193792,0.16816 9.291042,0.17944 2.586535,0.0342 5.174916,-0.0391 7.761078,0.0312 1.21144,0.0329 3.10074,0.1384 4.30594,0.20084 0.739781,0.0537 1.479812,0.10407 2.219336,0.16119 2.406547,0.18586 2.366386,0.21125 4.834546,0.37281 2.863453,0.18743 5.727867,0.28996 8.595662,0.38028 5.424127,0.17755 10.850781,0.0696 16.276155,0.0916 1.693558,0.0342 3.388921,-0.0365 5.081985,0.0353 1.252066,0.0531 2.504045,0.17886 3.75114,0.29768 1.214948,0.19492 2.642402,0.20677 3.765032,0.77644 0.123071,0.0625 0.233759,0.14677 0.350639,0.22015 0.4435,0.38398 0.758174,0.85213 0.649266,1.48485 -0.02551,0.14817 -0.09535,0.31249 -0.222858,0.39214 -1.065067,0.66532 -2.202442,1.20721 -3.303665,1.81081 -0.874231,0.15116 -1.759548,0.13049 -2.642579,0.13524 -0.660124,-0.0464 -1.342435,-0.094 -1.984708,-0.26802 -0.677294,-0.18346 -1.3159,-0.51644 -1.952445,-0.80402 -0.215535,-0.10704 -0.431231,-0.21376 -0.64661,-0.32113 -0.770808,-0.38424 -0.925584,-0.48334 -1.775635,-0.81694 -1.228857,-0.48227 -2.49048,-0.83902 -3.763028,-1.18262 -3.088542,-0.69652 0.225367,0.0365 -2.866046,-0.60346 -0.502251,-0.10397 -1.001138,-0.22377 -1.503429,-0.32754 -1.748898,-0.36133 -3.509322,-0.66169 -5.268793,-0.96566 -2.691363,-0.53038 -5.413624,-0.86207 -8.129228,-1.23519 -3.377832,-0.46411 -0.424145,-0.082 -3.702851,-0.49615 -3.556696,-0.49148 -7.142948,-0.43496 -10.720732,-0.32453 -4.57773,0.20801 -9.15698,0.34385 -13.738042,0.4499 -3.977245,0.0987 -7.955904,0.12937 -11.934221,0.15154 -1.359227,0.0379 -2.716123,0.13101 -4.07153,0.23611 -0.535429,0.0415 -1.074424,0.0556 -1.605291,0.13676 -0.164859,0.0252 -0.323846,0.0799 -0.485769,0.11979 -0.09569,0.0754 -0.395324,0.2822 -0.287065,0.22629 0.927825,-0.47916 1.851123,-0.96891 2.750977,-1.49873 0.07223,-0.0425 -0.25021,-0.0145 -0.254937,-0.0217 -0.146454,-0.22129 0.197365,-0.13411 0.238073,-0.13332 1.202702,0.26899 2.395494,0.58487 3.604506,0.82556 0.939508,0.18702 1.865153,0.32621 2.810919,0.47793 2.66284,0.40636 5.320063,0.83452 8.003579,1.07875 0.436509,0.0372 0.872675,0.0787 1.309523,0.11164 1.12572,0.0849 2.27067,0.16252 3.39979,0.16335 2.169075,0.002 4.327782,-0.20416 6.486041,-0.39245 0.746082,-0.0801 1.493028,-0.15249 2.238245,-0.24026 1.363845,-0.16063 2.723369,-0.35644 4.086876,-0.51991 1.937216,-0.23226 3.870917,-0.4131 5.816766,-0.55295 0.677019,-0.0303 1.353918,-0.0634 2.031053,-0.0909 1.670955,-0.068 2.166639,-0.10111 3.840856,-0.0507 2.029346,0.061 4.055459,0.24207 6.078331,0.40458 4.350221,0.43833 8.719447,0.56747 13.08677,0.69389 1.257734,0.0476 1.67648,0.0397 2.874592,0.16693 0.528887,0.0562 1.278837,0.14943 1.800329,0.33214 0.516937,0.18111 0.643342,0.31949 1.055835,0.62778 0.675709,0.75167 0.827014,1.32861 0.737495,2.31158 -0.07063,0.17929 -0.05382,0.42766 -0.211892,0.53788 -1.08249,0.75476 -2.245797,1.39187 -3.41988,1.99434 -0.194212,0.0997 -0.430339,0.0796 -0.648205,0.0932 -0.903063,0.0563 -1.777799,-0.0834 -2.661539,-0.24297 -0.328057,-0.0782 -0.657916,-0.14925 -0.984173,-0.23467 -2.205234,-0.57737 -0.150408,-0.1036 -2.568313,-0.67921 -1.992718,-0.47438 -4.005109,-0.85083 -6.014464,-1.24653 -3.394585,-0.67996 -6.806805,-1.26895 -10.245375,-1.67784 -2.213425,-0.2632 -2.746328,-0.28541 -4.951841,-0.46322 -5.062212,-0.29294 -10.132769,-0.45006 -15.201874,-0.57427 -3.168041,-0.0579 -6.33327,0.11837 -9.498695,0.21218 -0.347951,0.0103 -3.413287,0.075 -3.862971,0.0846 -1.276313,0.0385 -2.550701,-0.001 -3.823704,-0.0873 -0.198768,-0.0134 -0.403166,-0.0906 -0.596224,-0.0414 -0.06051,0.0154 -0.0041,0.22275 0.04341,0.18223 1.059811,-0.90383 2.045762,-1.89085 3.068643,-2.83627 0.353685,0.0431 0.706816,0.091 1.061057,0.12928 0.51152,0.0553 1.024688,0.0947 1.536059,0.15128 0.651212,0.0721 4.61004,0.55826 4.937483,0.59349 2.884133,0.31034 3.922085,0.3646 6.874616,0.58876 6.378434,0.37027 12.764902,0.58872 19.152867,0.69939 0.123835,0.003 3.278769,0.0827 3.590726,0.0857 0.406533,0.004 0.828562,0.10217 1.219621,-0.009 0.130995,-0.0372 0.257352,-0.46341 0.149553,-0.38019 -3.319589,2.56268 -1.623904,2.87736 -3.538458,2.2957 -2.386288,-0.81039 -4.879761,-1.24411 -7.373911,-1.56011 -0.732107,-0.0928 -1.465207,-0.18147 -2.200875,-0.23958 -0.707988,-0.0559 -1.418749,-0.0682 -2.128124,-0.10235 -2.068655,-0.0614 -4.135072,0.13566 -6.177737,0.44888 -0.553405,0.0849 -1.10898,0.16603 -1.65268,0.29963 -0.317604,0.078 -1.205714,0.49736 -0.922827,0.33324 0.891934,-0.51748 1.839515,-0.93247 2.759273,-1.39871 0.01979,-0.38003 -0.240247,-0.90545 0.05935,-1.14009 0.346726,-0.27155 0.879957,0.0388 1.319853,0.0599 0.686131,0.033 1.371815,0.0758 2.05822,0.1024 2.547517,0.0989 5.096624,0.11281 7.645596,0.13517 3.103483,0.002 1.605246,0.009 4.494728,-0.0173 0,0 -2.247333,2.48515 -2.247333,2.48515 v 0 c -2.819593,-0.0675 -1.351534,-0.0376 -4.404225,-0.087 -2.576867,-0.0294 -5.15389,-0.0707 -7.731011,-0.0494 -0.727925,0.006 -1.45568,0.0255 -2.183564,0.0352 -0.511667,0.007 -1.069039,0.2256 -1.535068,0.0143 -0.554178,-0.25132 -0.858266,-0.86283 -1.287399,-1.29424 1.096545,-0.57763 2.156899,-1.22992 3.289634,-1.7329 0.270631,-0.12017 0.58662,-0.0814 0.880369,-0.11874 0.538146,-0.0684 1.076177,-0.13817 1.615281,-0.19859 2.087226,-0.23395 4.186613,-0.44655 6.289895,-0.30896 0.71797,0.0516 1.43747,0.085 2.153906,0.15468 0.738693,0.0718 1.474425,0.17194 2.210131,0.26972 2.618735,0.34803 5.23508,0.77112 7.790852,1.44984 2.032481,0.79806 1.625745,0.27509 -1.351817,3.31063 -0.0986,0.10053 -0.263943,-0.1065 -0.403548,-0.12489 -0.383304,-0.0505 -0.771308,-0.0545 -1.157039,-0.0807 -0.51957,-0.0352 -1.039124,-0.0706 -1.558864,-0.1032 -0.63356,-0.0397 -1.267349,-0.0757 -1.901026,-0.11353 -6.306645,-0.35922 -12.61492,-0.67606 -18.924092,-0.98784 -1.225275,-0.0732 -2.450944,-0.14008 -3.675825,-0.21959 -3.768132,-0.24459 -7.53305,-0.58587 -11.310551,-0.65193 0.643286,-0.97674 1.228556,-1.99427 1.92986,-2.93023 0.04334,-0.0578 0.07743,0.13523 0.144808,0.16138 0.15776,0.0613 0.332087,0.0667 0.499853,0.0889 1.190141,0.15768 2.392689,0.16945 3.590948,0.19038 4.415769,0.004 8.829098,-0.19101 13.245219,-0.11533 5.091745,0.13276 10.186702,0.2539 15.269935,0.58814 2.212943,0.20545 2.74049,0.23452 4.961085,0.52205 3.45644,0.44755 6.887702,1.0564 10.318113,1.66696 2.078516,0.35174 4.162816,0.68619 6.22873,1.10807 1.745811,0.35651 1.0179,0.2546 2.636322,0.57408 0.313015,0.0618 0.62838,0.11104 0.94257,0.16656 0.814147,0.0699 1.586537,0.13282 2.382896,-0.10799 0.180107,-0.0545 0.674613,-0.32733 0.519512,-0.2208 -2.409407,1.6549 -3.50375,1.48998 -2.190573,1.61124 0.04572,-0.0467 0.107463,-0.0818 0.137165,-0.14002 0.144561,-0.28323 -0.0011,-0.71713 -0.208036,-0.92359 -0.09209,-0.0607 -0.177713,-0.13251 -0.276278,-0.18195 -0.615897,-0.30896 -1.364081,-0.40304 -2.034289,-0.49362 -1.076282,-0.14548 -1.59181,-0.16403 -2.718758,-0.24717 -4.3591,-0.22999 -8.721105,-0.40894 -13.072922,-0.75982 -1.32294,-0.0928 -2.761615,-0.20265 -4.088077,-0.26125 -2.586995,-0.11426 -5.178819,-0.0652 -7.761525,0.11962 -4.037571,0.35548 -8.058237,0.85956 -12.091072,1.26227 -1.52844,0.1281 -2.988686,0.26369 -4.520896,0.33953 -2.335308,0.1156 -4.676336,0.0568 -7.005907,-0.13808 -2.681911,-0.28564 -5.330704,-0.80601 -8.002072,-1.1732 -1.400081,-0.22569 -2.795664,-0.46671 -4.189878,-0.72628 -0.414651,-0.0772 -1.510445,-0.27286 -1.969133,-0.39858 -0.227993,-0.0625 -0.447246,-0.15335 -0.67087,-0.23002 -0.192645,-0.13079 -0.417295,-0.22381 -0.577937,-0.39237 -0.325593,-0.34164 -0.457225,-0.67193 -0.433643,-1.12516 0.08606,-1.65404 2.349715,-2.26675 3.849214,-2.4002 2.017972,-0.0923 4.039032,-0.11866 6.058706,-0.14121 3.936327,0.01 7.87272,0.0154 11.808768,-0.0413 4.59927,-0.0915 9.193442,-0.30491 13.788016,-0.52676 1.920915,-0.0756 3.838985,-0.14809 5.761628,-0.0763 1.154088,0.0431 2.246918,0.13891 3.39458,0.26396 0.577109,0.0629 1.152557,0.14019 1.728835,0.21028 3.950698,0.55543 7.899122,1.13046 11.836334,1.77511 3.28618,0.53188 6.570673,1.08995 9.807318,1.87706 2.207638,0.60731 4.391459,1.30272 6.45791,2.30193 0.419532,0.18629 0.698648,0.3261 1.143357,0.45729 0.797177,0.23519 1.637552,0.27261 2.462528,0.23801 0.79139,-0.0345 1.623607,-0.0619 2.337805,-0.44167 -0.902681,0.51923 -1.843646,0.97696 -2.70805,1.55768 -0.07618,0.0512 0.188275,0.0307 0.261583,0.0859 0.110429,0.0832 0.174159,0.21521 0.270216,0.31463 0.01566,0.0162 0.05842,0.0509 0.06134,0.0285 0.0098,-0.075 -0.176459,-0.10228 -0.167225,-0.15321 -1.116793,-0.56083 -2.420966,-0.60535 -3.631975,-0.79759 -2.851422,-0.29132 -5.712484,-0.42837 -8.578426,-0.47423 -5.378292,-0.10074 -10.757202,-0.16642 -16.13544,-0.27026 -2.905932,-0.0733 -5.810155,-0.15218 -8.713203,-0.30616 -2.356212,-0.12498 -2.594152,-0.1621 -4.892331,-0.3131 -0.737579,-0.0485 -1.475444,-0.0924 -2.213165,-0.13861 -4.030668,-0.17437 -8.062503,-0.16945 -12.096314,-0.12898 -3.160791,0.0108 -6.325708,0.0646 -9.483193,-0.10809 -0.804439,-0.0811 -1.518339,-0.13858 -2.316557,-0.27766 -1.333236,-0.23229 -2.606893,-0.69447 -3.819057,-1.29084 -0.776549,-0.40609 -1.52626,-0.84409 -2.287822,-1.27598 -0.15337,-0.087 -0.307766,-0.17281 -0.467564,-0.24733 -0.100423,-0.0468 -0.213458,-0.16752 -0.31153,-0.11595 -0.07316,0.0385 0.0691,0.15017 0.103652,0.22526 0.926723,-0.7955 1.854126,-1.59021 2.780169,-2.3865 0.01044,-0.009 -0.03467,0.0108 -0.03327,0.0245 0.0041,0.0399 0.02492,0.0773 0.04713,0.11063 0.141643,0.21289 0.369472,0.34237 0.582561,0.47035 0.36414,0.19236 0.729625,0.40296 1.111998,0.55748 1.428978,0.57748 2.461931,-1.00915 -2.215581,1.95346 0.09811,0.11621 0.154211,0.28948 0.294322,0.34863 0.08041,0.034 -0.0267,-0.17587 -0.06767,-0.25294 -0.240976,-0.45341 -0.462666,-0.55595 -0.857297,-0.93556 -0.143386,-0.13793 -0.282721,-0.28015 -0.418646,-0.42543 -0.08181,-0.0874 -0.156137,-0.18159 -0.234205,-0.27238 0,0 3.307948,-1.99604 3.307948,-1.99604 z"
       inkscape:connector-curvature="0" />
    <path
       style="fill:#000000;fill-opacity:1;stroke-width:1.5;stroke-linecap:round;stroke-miterlimit:4;stroke-dasharray:none"
       id="path4780"
       d="m 17.31052,176.79221 c 6.240101,-0.13184 12.476822,-0.39289 18.716519,-0.54283 1.624431,-0.0285 3.248917,-0.0539 4.873289,-0.0854 4.713296,-0.0916 9.42484,-0.17978 14.139312,-0.1878 0.404405,-7.9e-4 8.354521,0.0275 8.868945,0.0292 6.697678,0.0519 13.395211,0.12904 20.093127,0.13723 3.824986,0.002 7.6503,-0.0125 11.474506,-0.0947 0.740203,0.0335 1.49176,-0.0601 2.228138,0.0588 0.102439,0.0165 0.22725,0.007 0.300736,0.0804 0.18112,0.18057 0.603655,0.46009 0.422394,0.64052 -0.949738,0.94537 -2.219608,1.50209 -3.329414,2.25313 -2.715117,-0.19662 -5.400968,-0.63963 -8.096855,-0.99754 -0.852816,-0.11323 -1.707544,-0.21153 -2.561318,-0.31729 -3.504403,-0.41958 -7.029913,-0.57276 -10.552983,-0.72831 -6.64768,-0.29352 1.401347,0.0379 -5.183034,-0.22817 -5.552815,-0.20987 -11.099961,-0.53229 -16.647202,-0.85283 -4.083634,-0.18196 -8.170264,-0.34634 -12.257836,-0.41068 -2.813915,-0.0443 -3.697764,-0.0243 -6.522175,-0.009 -4.137501,0.0782 -2.083297,0.0412 -6.162609,0.11124 0,0 2.057078,-2.30453 2.057078,-2.30453 v 0 c 4.056821,-0.047 2.016484,-0.0292 6.121011,-0.053 4.274177,-0.0262 8.549888,-0.0188 12.822102,0.13616 0.971809,0.0352 1.942743,0.0915 2.914129,0.13702 1.039077,0.0487 2.07817,0.097 3.117254,0.14546 2.025865,0.098 4.050893,0.21303 6.076985,0.30609 3.552684,0.16319 7.109716,0.2249 10.660382,0.43472 5.266174,0.23376 10.539346,0.4258 15.781623,1.01029 1.663052,0.1792 3.323384,0.38366 4.98742,0.55348 1.706697,0.17416 3.444748,0.33315 5.162878,0.22814 0.243364,-0.0149 0.48333,-0.0647 0.724993,-0.097 -0.901954,0.72373 -1.959719,1.28769 -2.70586,2.1712 -0.146798,0.17382 0.313016,0.33884 0.413819,0.54281 0.02365,0.0479 -0.105164,-0.0188 -0.158144,-0.0255 -0.138057,-0.0173 -0.276209,-0.0344 -0.414832,-0.0463 -0.58901,-0.0507 -0.972987,-0.0608 -1.586847,-0.0889 -3.74048,-0.0916 -7.482009,-0.12636 -11.222886,-0.19832 -6.599748,-0.13384 -13.198136,-0.31505 -19.797586,-0.4601 -9.271952,-0.1168 -18.549548,-0.14331 -27.816772,0.22318 -4.205282,0.18658 -8.416735,0.33296 -12.614296,0.66052 -1.515387,0.11825 -3.896316,0.32491 -5.494082,0.62606 -0.389214,0.0734 -0.763942,0.20945 -1.145913,0.31417 0,0 2.314004,-3.07187 2.314004,-3.07187 z"
       inkscape:connector-curvature="0" />
    <path
       style="fill:#000000;fill-opacity:1;stroke-width:1.5;stroke-linecap:round;stroke-miterlimit:4;stroke-dasharray:none"
       id="path4782"
       d="m 5.0582848,177.0298 c 0.1880417,0.0341 0.3746889,0.0771 0.5641255,0.10234 0.941719,0.12546 1.9092339,0.19455 2.8546999,0.25153 2.1821758,0.13151 4.3654318,0.17502 6.5507058,0.21461 3.016268,0.0147 6.031682,-0.01 9.045921,0.11445 0,0 -2.503666,2.67688 -2.503666,2.67688 v 0 c -2.914016,-0.25272 -5.84119,-0.2792 -8.763626,-0.35289 -3.4846406,-0.0718 -6.9711396,-0.10741 -10.4537271,-0.24785 0,0 2.7055669,-2.75907 2.7055669,-2.75907 z"
       inkscape:connector-curvature="0" />
    <path
       style="fill:#000000;fill-opacity:1;stroke-width:1.5;stroke-linecap:round;stroke-miterlimit:4;stroke-dasharray:none"
       id="path4784"
       d="m 51.868228,164.27202 c 1.34075,0.025 2.677446,-0.12455 4.016259,-0.16851 0.872688,-0.0286 0.968205,-0.007 1.788332,0.04 0.208523,0.0322 0.417044,0.0643 0.625567,0.0965 0,0 -2.622261,2.67679 -2.622261,2.67679 v 0 c -0.174146,-0.0219 -0.34829,-0.0437 -0.522436,-0.0656 -0.917829,-0.0475 -1.816489,-0.0315 -2.734437,0.0331 -0.497644,0.035 -1.651863,0.13255 -2.171613,0.2174 -0.2541,0.0415 -0.502454,0.11265 -0.753681,0.16898 0,0 2.37427,-2.99864 2.37427,-2.99864 z"
       inkscape:connector-curvature="0" />
  </g>
</svg>
