<?xml version="1.0" encoding="UTF-8" standalone="no"?>
<!-- Created with Inkscape (http://www.inkscape.org/) -->

<svg
   xmlns:dc="http://purl.org/dc/elements/1.1/"
   xmlns:cc="http://creativecommons.org/ns#"
   xmlns:rdf="http://www.w3.org/1999/02/22-rdf-syntax-ns#"
   xmlns:svg="http://www.w3.org/2000/svg"
   xmlns="http://www.w3.org/2000/svg"
   xmlns:sodipodi="http://sodipodi.sourceforge.net/DTD/sodipodi-0.dtd"
   xmlns:inkscape="http://www.inkscape.org/namespaces/inkscape"
   width="210mm"
   height="297mm"
   viewBox="0 0 210 297"
   version="1.1"
   id="svg1653"
   inkscape:version="0.92.3 (2405546, 2018-03-11)"
   sodipodi:docname="prison.svg"
   inkscape:export-filename="/home/vilda/programming/out-of-the-calm-house/src/prison.png"
   inkscape:export-xdpi="45.501999"
   inkscape:export-ydpi="45.501999">
  <defs
     id="defs1647" />
  <sodipodi:namedview
     id="base"
     pagecolor="#ffffff"
     bordercolor="#666666"
     borderopacity="1.0"
     inkscape:pageopacity="0.0"
     inkscape:pageshadow="2"
     inkscape:zoom="1.2742836"
     inkscape:cx="249.56466"
     inkscape:cy="634.50778"
     inkscape:document-units="mm"
     inkscape:current-layer="layer1"
     showgrid="false"
     inkscape:window-width="1920"
     inkscape:window-height="1047"
     inkscape:window-x="2560"
     inkscape:window-y="360"
     inkscape:window-maximized="1" />
  <metadata
     id="metadata1650">
    <rdf:RDF>
      <cc:Work
         rdf:about="">
        <dc:format>image/svg+xml</dc:format>
        <dc:type
           rdf:resource="http://purl.org/dc/dcmitype/StillImage" />
        <dc:title />
      </cc:Work>
    </rdf:RDF>
  </metadata>
  <g
     inkscape:label="Layer 1"
     inkscape:groupmode="layer"
     id="layer1">
    <rect
       style="fill:#4d4d4d;fill-opacity:1;stroke-width:1.27983654;stroke-linecap:round;stroke-miterlimit:4;stroke-dasharray:none"
       id="rect815"
       width="476.6012"
       height="137.76869"
       x="-20.703009"
       y="94.608849" />
    <path
       style="fill:#000000;fill-opacity:1;stroke-width:5.31527376;stroke-linecap:round;stroke-miterlimit:4;stroke-dasharray:none"
       id="path855-3"
       d="m 4.3461771,91.430548 c 10.8073909,0.181328 21.6360429,0.34661 32.4744749,0.45508 20.86071,0.131769 41.742974,0.172241 62.613184,0.114642 17.088884,-0.103841 34.184534,-0.10307 51.276464,-0.187933 17.49819,-0.138249 34.95234,-0.407943 52.45175,-0.548105 13.21527,-0.126677 26.44114,-0.13146 39.66772,-0.132386 12.40223,-0.0046 24.79246,-0.157258 37.17329,-0.287839 9.87983,-0.166424 19.76224,-0.09767 29.6495,-0.02068 1.64793,0.0108 3.29618,0.01867 4.9438,0.03024 3.59013,0.025 7.63982,0.06851 11.22441,0.06712 5.61963,-0.0015 11.25809,-0.06496 16.87204,-0.108624 11.10469,-0.01636 22.20842,-0.06079 33.31344,-0.06388 11.43439,0.05462 22.82768,0.241628 34.26135,0.300167 10.91143,0.0046 21.81848,0.04907 32.72875,0.07298 12.711,0.09196 25.41667,0.177595 38.13832,0.169325 9.23481,-0.0108 18.46711,-0.04598 27.69152,-0.130843 0.94667,-0.0031 1.89655,0.0031 2.84002,-0.0108 3.06096,-0.04922 1.62769,-0.07329 4.49404,-0.183844 2.63003,-0.101372 5.38337,-0.102452 8.05165,-0.13578 0.87158,-0.01234 1.74314,-0.02515 2.61473,-0.03749 l -32.35086,7.148223 v 0 c -0.79363,0.01234 -1.58726,0.02531 -2.38093,0.03796 -2.64775,0.05987 -5.33241,0.167288 -7.99972,0.18605 -1.6971,0.01234 -3.85743,-0.02978 -5.55192,-0.04305 -0.91459,-0.0077 -1.83025,-0.0077 -2.74535,-0.01234 -8.78629,-0.09412 -17.58227,-0.138866 -26.37725,-0.192639 -12.72562,-0.07375 -25.4569,-0.09597 -38.18675,-0.121739 -11.04742,0.0062 -22.09755,0.0287 -33.1251,-0.126677 -11.32608,-0.105384 -22.66556,-0.19736 -34.00773,-0.178428 -11.04734,0.01944 -22.09743,0.01389 -33.13891,0.09813 -11.27364,0.0093 -22.54778,-0.0031 -33.82043,-0.02438 -9.48974,-0.02068 -18.97384,0.0012 -28.46146,0.04737 -12.45967,0.06619 -24.90535,0.226461 -37.3777,0.171207 -12.91336,0.0108 -25.82761,0.03163 -38.74,0.06619 -17.26902,0.09273 -34.52541,0.247244 -51.78319,0.395044 -6.18529,0.0466 -12.36658,0.114025 -18.55459,0.145193 -10.916132,0.05508 -21.836578,-0.01558 -32.7441,-0.09057 -21.031448,-0.08317 -42.071667,-0.06897 -63.1066503,-0.06403 -11.9208188,0.03857 -15.6603121,2.024408 -27.5388537,2.227828 l -0.905674,-9.995071 z"
       inkscape:connector-curvature="0"
       sodipodi:nodetypes="ccccccccccccccccccccccccccccccccccccsccccc" />
    <path
       style="fill:#000000;fill-opacity:1;stroke-width:8.00801373;stroke-linecap:round;stroke-miterlimit:4;stroke-dasharray:none"
       id="path855"
       d="m -0.19707272,191.45633 c 10.88392772,0.40869 21.78926572,0.78122 32.70445272,1.0257 21.008443,0.29699 42.03859,0.38821 63.056605,0.25839 17.209895,-0.23404 34.426635,-0.23231 51.639605,-0.42358 17.6221,-0.3116 35.19986,-0.91946 52.82319,-1.23537 13.30886,-0.28552 26.62838,-0.2963 39.94863,-0.29838 12.49006,-0.0104 24.96803,-0.35445 37.43654,-0.64876 9.94982,-0.3751 19.9022,-0.22014 29.85947,-0.0466 1.65961,0.0243 3.31955,0.0421 4.97882,0.0682 3.61555,0.0563 7.6939,0.15441 11.30389,0.15128 5.65944,-0.003 11.33783,-0.14641 16.99154,-0.24483 11.1833,-0.0369 22.36567,-0.13702 33.54935,-0.14398 11.51535,0.12311 22.98934,0.54461 34.50398,0.67655 10.9887,0.0104 21.97302,0.11059 32.96053,0.16449 12.80101,0.20727 25.59664,0.40028 38.4084,0.38164 9.3002,-0.0243 18.5979,-0.10363 27.88762,-0.2949 0.95338,-0.007 1.90999,0.007 2.86013,-0.0243 3.08267,-0.11093 1.63922,-0.16519 4.52587,-0.41436 2.64869,-0.22848 5.42152,-0.23092 8.1087,-0.30604 0.87774,-0.0278 1.7555,-0.0567 2.63327,-0.0845 l -32.57999,16.11134 v 0 c -0.79925,0.0278 -1.59849,0.057 -2.39783,0.0856 -2.66649,0.13493 -5.37014,0.37705 -8.05635,0.41937 -1.70917,0.0278 -3.88478,-0.0671 -5.59124,-0.097 -0.92107,-0.0174 -1.8432,-0.0174 -2.76479,-0.0278 -8.84849,-0.21214 -17.70675,-0.31299 -26.56401,-0.43415 -12.81579,-0.16623 -25.63722,-0.21631 -38.45721,-0.27439 -11.12568,0.0139 -22.25404,0.0647 -33.3597,-0.28552 -11.40625,-0.23752 -22.82607,-0.44482 -34.24856,-0.40212 -11.12557,0.0438 -22.25392,0.0313 -33.3736,0.22118 -11.35346,0.0209 -22.70742,-0.007 -34.05994,-0.055 -9.55693,-0.0466 -19.10821,0.003 -28.66301,0.10677 -12.5479,0.14919 -25.08171,0.51042 -37.6424,0.38588 -13.00481,0.0243 -26.01052,0.0713 -39.01433,0.14919 -17.39133,0.20901 -34.76994,0.55726 -52.14993,0.89039 -6.22908,0.10502 -12.45415,0.257 -18.685979,0.32725 -10.993451,0.12415 -21.991239,-0.0351 -32.976006,-0.20414 -21.180375,-0.18745 -42.369608,-0.15545 -63.5535446,-0.14432 -12.0052534,0.0869 -17.8040764,-0.87519 -29.7667254,-0.4167 l 1.351562,-12.54429 z"
       inkscape:connector-curvature="0"
       sodipodi:nodetypes="ccccccccccccccccccccccccccccccccccccsccccc" />
    <path
       style="fill:#000000;fill-opacity:1;stroke-width:2.19619155;stroke-linecap:round;stroke-miterlimit:4;stroke-dasharray:none"
       id="path855-3-9"
       d="m -23.260835,226.36542 c 0.11752,-2.84683 0.22464,-5.69929 0.29494,-8.55432 0.0854,-5.49506 0.11163,-10.9958 0.0743,-16.49337 -0.0673,-4.5015 -0.0668,-9.00478 -0.1218,-13.50709 -0.0896,-4.60933 -0.26439,-9.20704 -0.35523,-13.81668 -0.0821,-3.48112 -0.0852,-6.96504 -0.0858,-10.44915 -0.003,-3.26695 -0.10192,-6.53076 -0.18655,-9.79207 -0.10786,-2.60252 -0.0633,-5.20571 -0.0134,-7.81018 0.007,-0.4341 0.0121,-0.86828 0.0196,-1.30229 0.0162,-0.9457 0.0444,-2.01245 0.0435,-2.95669 -0.001,-1.48031 -0.0421,-2.96557 -0.0704,-4.44439 -0.0106,-2.92517 -0.0394,-5.85007 -0.0414,-8.77532 0.0354,-3.01201 0.1566,-6.0132 0.19454,-9.02502 0.003,-2.87426 0.0318,-5.74736 0.0473,-8.62131 0.0596,-3.34829 0.1151,-6.69518 0.10974,-10.04627 -0.007,-2.43261 -0.0298,-4.864554 -0.0848,-7.294421 -0.002,-0.249364 0.009,0.248535 0,0 -0.0319,-0.806308 3.554075,0.866473 3.482425,0.111428 -0.579109,-5.443627 -0.01412,1.936129 0.911925,3.66872 v 0 c 0.008,0.209056 0.0164,0.418107 0.0246,0.627174 0.0388,0.697463 0.10842,1.404649 0.12058,2.107262 0.008,0.447047 -0.0193,1.016117 -0.0279,1.462477 -0.005,0.24091 -0.005,0.48211 -0.008,0.72317 -0.061,2.31445 -0.09,4.63146 -0.12485,6.9482 -0.0478,3.35216 -0.0622,6.70579 -0.0789,10.05904 0.004,2.91008 0.0186,5.82087 -0.0821,8.72572 -0.0683,2.98347 -0.12791,5.97048 -0.11564,8.95821 0.0126,2.91006 0.009,5.82083 0.0636,8.72935 0.006,2.96967 -0.002,5.93947 -0.0158,8.90888 -0.0134,2.49975 7.9e-4,4.99803 0.0307,7.49722 0.0429,3.28209 0.14677,6.56049 0.11096,9.84593 0.007,3.40159 0.0205,6.80342 0.0429,10.20476 0.0601,4.54896 0.16024,9.09459 0.25603,13.64057 0.0302,1.62931 0.0739,3.25756 0.0941,4.88759 0.0357,2.8755 -0.0101,5.75213 -0.0587,8.62536 -0.0539,5.54005 -0.0447,11.08239 -0.0415,16.62336 0.025,3.14015 1.31202,4.12519 1.44386,7.2542 l -6.47785,0.23857 z"
       inkscape:connector-curvature="0"
       sodipodi:nodetypes="ccccccccccccccccccccccccccccccccccsccccc" />
    <path
       style="fill:#000000;fill-opacity:1;stroke-width:2.22945142;stroke-linecap:round;stroke-miterlimit:4;stroke-dasharray:none"
       id="path855-3-9-1"
       d="m 446.93587,226.69866 c 0.11752,-2.93372 0.22464,-5.87323 0.29494,-8.81539 0.0854,-5.66275 0.11163,-11.33137 0.0743,-16.99671 -0.0673,-4.63888 -0.0668,-9.27959 -0.1218,-13.91929 -0.0896,-4.75 -0.26439,-9.48803 -0.35523,-14.23835 -0.0821,-3.58736 -0.0852,-7.1776 -0.0858,-10.76803 -0.003,-3.36666 -0.10192,-6.73007 -0.18655,-10.09091 -0.10786,-2.68194 -0.0633,-5.36458 -0.0134,-8.04853 0.007,-0.44735 0.0121,-0.89477 0.0196,-1.34203 0.0162,-0.97456 0.0444,-2.07387 0.0435,-3.04693 -0.001,-1.52548 -0.0421,-3.05607 -0.0704,-4.58002 -0.0106,-3.01444 -0.0394,-6.0286 -0.0414,-9.04313 0.0354,-3.10393 0.1566,-6.19671 0.19454,-9.30044 0.003,-2.96198 0.0318,-5.92276 0.0473,-8.88441 0.0596,-3.45048 0.1151,-6.89951 0.10974,-10.352876 -0.007,-2.50686 -0.0298,-5.013023 -0.0848,-7.517043 -0.002,-0.256975 0.009,0.256119 0,0 -0.0319,-0.830916 3.55407,0.892915 3.48242,0.114828 -0.57911,-5.609756 -0.0141,1.995216 0.91193,3.780682 v 0 c 0.008,0.215435 0.0164,0.430867 0.0246,0.646313 0.0388,0.718749 0.10842,1.44752 0.12058,2.171576 0.008,0.460698 -0.0193,1.04713 -0.0279,1.507115 -0.005,0.248259 -0.005,0.496835 -0.008,0.745248 -0.061,2.385087 -0.09,4.772807 -0.12485,7.160247 -0.0478,3.45446 -0.0622,6.91043 -0.0789,10.36602 0.004,2.9989 0.0186,5.99852 -0.0821,8.99201 -0.0683,3.07452 -0.12791,6.15269 -0.11564,9.2316 0.0126,2.99886 0.009,5.99847 0.0636,8.99576 0.006,3.06029 -0.002,6.12073 -0.0158,9.18075 -0.0134,2.57604 7.9e-4,5.15056 0.0307,7.72603 0.0429,3.38225 0.14677,6.7607 0.11096,10.1464 0.007,3.5054 0.0205,7.01105 0.0429,10.5162 0.0601,4.68777 0.16024,9.37213 0.25603,14.05685 0.0302,1.67903 0.0739,3.35697 0.0941,5.03675 0.0357,2.96325 -0.0101,5.92767 -0.0587,8.88858 -0.0539,5.70913 -0.0447,11.4206 -0.0415,17.13067 0.025,3.23599 1.31202,4.2511 1.44386,7.4756 l -6.47785,0.24583 z"
       inkscape:connector-curvature="0"
       sodipodi:nodetypes="ccccccccccccccccccccccccccccccccccsccccc" />
    <path
       style="fill:#000000;fill-opacity:1;stroke-width:1.5;stroke-linecap:round;stroke-miterlimit:4;stroke-dasharray:none"
       id="path2829"
       d="m -15.518203,162.13617 c 1.223189,5.94619 3.037143,11.75519 4.803163,17.55772 1.3883844,4.54075 2.7145059,9.11709 4.5041616,13.52108 0.098183,0.20508 0.190356,0.41314 0.2945482,0.61522 0.057203,0.11095 0.1082616,0.22816 0.1892538,0.32315 0.015026,0.0176 0.056926,-0.068 0.035228,-0.0599 -2.8820642,1.07447 -3.6452574,1.11716 -2.5796401,1.04209 0,0 2.897868,-0.97386 2.897868,-0.97386 v 0 c 0.097063,1.4992 0.2198809,0.79865 -2.7992681,1.74112 -0.074851,0.0234 -0.276538,-0.37841 -0.396049,-0.6574 -0.096071,-0.22428 -0.1808676,-0.45321 -0.2713014,-0.67981 -1.571878,-4.51896 -2.908744,-9.11588 -4.261305,-13.70377 -1.766071,-5.80668 -3.529927,-11.61583 -5.1495,-17.4653 0,0 2.732841,-1.26036 2.732841,-1.26036 z"
       inkscape:connector-curvature="0" />
    <path
       style="fill:#000000;fill-opacity:1;stroke-width:1.5;stroke-linecap:round;stroke-miterlimit:4;stroke-dasharray:none"
       id="path2831"
       d="m -8.2701471,191.24107 c 2.6570267,-3.44535 5.4308162,-6.78782 8.33321636,-10.02899 1.74662084,-1.91674 3.46920964,-3.8567 5.29294524,-5.70143 0.2422556,-0.24504 1.8998234,-1.91196 2.3729743,-2.19603 1.0104311,-0.60664 2.0949235,-1.08039 3.1423862,-1.62059 0.286027,0.20344 0.631938,0.34187 0.858081,0.61031 0.777289,0.92264 0.967104,3.31851 1.192349,4.43734 0.452688,2.24856 0.453099,2.06149 1.118634,4.31386 0.865369,2.92446 2.327739,5.57522 4.090715,8.04131 0,0 -2.500407,1.53048 -2.500407,1.53048 v 0 c -1.75562,-2.57688 -3.214849,-5.33688 -4.121105,-8.33514 -0.731484,-2.37109 -0.677532,-2.02231 -1.200584,-4.37331 -0.137018,-0.61586 -0.245699,-1.23775 -0.3789027,-1.85446 -0.03201,-0.1482 -0.274669,-1.53329 -0.5541827,-1.88117 -0.06001,-0.0747 -0.184048,-0.0533 -0.276072,-0.08 0.5147407,-0.35768 1.0010624,-0.7602 1.5442214,-1.07305 0.397657,-0.22904 -0.7548877,0.5244 -1.1055667,0.8204 -2.4741027,2.08831 -4.5334177,4.62223 -6.7574131,6.9588 -2.85888531,3.17752 -5.6289589,6.43936 -8.0673469,9.95593 0,0 -2.9839424,0.47572 -2.9839424,0.47572 z"
       inkscape:connector-curvature="0" />
    <path
       style="fill:#000000;fill-opacity:1;stroke-width:1.5;stroke-linecap:round;stroke-miterlimit:4;stroke-dasharray:none"
       id="path2833"
       d="m -16.854288,167.94494 c -0.0322,2.4926 -0.231434,5.01878 0.281641,7.48109 0.12112,0.58126 0.312245,1.14571 0.468368,1.71857 1.123364,3.26236 2.824918,6.25736 4.718819,9.12359 0.927076,1.36574 1.8593302,2.73945 2.9725318,3.96379 0.5767464,0.63433 0.3203466,0.64899 0.8250388,0.38233 -0.7773392,0.29896 -1.5029193,0.9758 -2.3320174,0.89688 -0.3766912,-0.0359 -0.037834,-0.75865 -0.1125792,-1.12959 -0.130234,-0.64631 -0.312138,-1.28171 -0.500614,-1.91349 -0.791603,-2.65351 -1.798747,-5.25306 -2.720814,-7.86245 -0.963388,-2.69973 -1.843259,-5.4297 -2.83978,-8.11773 -0.20874,-0.56306 -0.413038,-1.12861 -0.654753,-1.67832 -0.39362,-0.89517 -0.152143,-0.86525 -0.63042,-0.81225 0.829482,-0.24449 1.637943,-0.88989 2.488445,-0.73348 0.385259,0.0708 -0.10944,0.77741 -0.120402,1.16897 -0.0157,0.56094 5.55e-4,1.12325 0.04056,1.68297 0.146436,2.04913 0.577458,4.01109 1.082448,5.99494 0.651665,2.27115 1.667528,4.3969 3.158712,6.23651 0.7927974,0.97804 1.1189644,1.23826 1.9985457,2.07464 0.1945032,0.14975 1.3163614,1.06113 1.6476049,1.15196 0.1758092,0.0482 0.7004859,-0.19227 0.534026,-0.11795 -0.6729354,0.30046 -1.3243407,0.8145 -2.0611605,0.79981 -0.2873492,-0.006 0.2094105,-0.54935 0.2079932,-0.83676 -0.00235,-0.47775 -0.1460701,-0.94429 -0.2191055,-1.41643 -0.1882581,-0.57681 -0.3480908,-1.16368 -0.5647748,-1.73041 -0.5954247,-1.55734 -1.193326,-2.67934 -1.983036,-4.1671 -1.158729,-2.18297 -2.429158,-4.28677 -3.717703,-6.39419 -1.08577,-1.79081 -2.078316,-3.63487 -3.091491,-5.4669 0,0 2.570899,-1.45248 2.570899,-1.45248 v 0 c 0.960072,1.84482 1.905509,3.69823 2.95793,5.49309 1.271691,2.13369 2.5289711,4.27024 3.7183357,6.45144 0.8871494,1.62696 1.4225171,2.56174 2.1095591,4.24822 0.2436672,0.59813 0.4343723,1.2165 0.6515584,1.82474 0.046942,0.21182 0.7130989,2.60978 0.3363624,3.0092 -2.6045228,2.76139 -3.4429856,2.02577 -5.5064376,0.27098 -1.129243,-1.13703 -2.210708,-2.29178 -3.083538,-3.64665 -1.016192,-1.5774 -1.706751,-3.32252 -2.240398,-5.11404 -0.672282,-2.62265 -1.195292,-5.16271 -1.308293,-7.87798 -0.01845,-0.44344 -0.295857,-0.99343 -0.0082,-1.33144 0.744327,-0.87472 1.881795,-1.31737 2.822692,-1.97606 0.123148,0.13602 0.278789,0.24853 0.369442,0.40805 0.299853,0.52767 0.893101,2.36743 0.997804,2.67861 0.913967,2.71629 1.784794,5.44751 2.769368,8.13972 0.67235,1.83368 1.3558613,3.66329 2.0204419,5.49981 0.4824952,1.33333 1.0694718,2.93696 1.4490105,4.32364 0.1364393,0.4985 0.6264005,1.08263 0.3398988,1.51278 -0.629843,0.94564 -1.8118195,1.37152 -2.7177293,2.05728 -0.2131645,-0.10533 -0.4513729,-0.17059 -0.6394929,-0.316 -0.2111,-0.16317 -1.042835,-1.21071 -1.159135,-1.3601 -0.833324,-1.07039 -1.595654,-2.19273 -2.341118,-3.32535 -1.935371,-2.94628 -3.654585,-6.0321 -4.825943,-9.3707 -0.172914,-0.60429 -0.382968,-1.19916 -0.518741,-1.81286 -0.549091,-2.4819 -0.371085,-5.02905 -0.467781,-7.54754 0,0 2.827455,-1.08536 2.827454,-1.08536 z"
       inkscape:connector-curvature="0" />
    <path
       style="fill:#000000;fill-opacity:1;stroke-width:1.5;stroke-linecap:round;stroke-miterlimit:4;stroke-dasharray:none"
       id="path2835"
       d="m -6.7988413,187.29258 c 1.7442714,-2.2147 3.4847145,-4.43338 5.3817166,-6.52034 1.08166199,-1.04759 1.95627083,-2.27725 2.9628167,-3.39086 0.5622205,-0.67082 1.261573,-1.17647 1.9934938,-1.64226 0.9044268,-0.67927 1.7379961,-1.44753 2.6390521,-2.13282 0.2943291,1.3748 2.0683563,-2.01016 3.2239757,-1.6572 1.2042034,0.3678 1.0468734,2.30097 1.1042314,3.21588 0.03697,0.48661 0.07014,0.97354 0.110917,1.45985 0.09474,1.1299 0.133381,1.70376 0.350387,2.81166 0.243962,1.24551 0.636511,2.44439 1.031359,3.64749 0.537126,1.70598 1.109028,2.36164 2.465515,3.42515 0.869997,0.58567 1.730538,1.1852 2.687536,1.62061 0.651771,0.3231 1.153648,0.8587 1.50584,1.48671 0.240783,0.33352 0.310976,0.74516 0.646094,0.99745 0.368407,0.0769 0.757341,0.0257 1.12397,-0.0446 0.878528,-0.13253 1.767868,-0.18495 2.65451,-0.23248 0.358325,0.0611 0.864813,-0.12094 1.213129,-0.0325 0.186866,0.0474 0.278985,0.17221 0.407621,0.29892 0.640079,1.39219 0.443954,0.53902 -2.249385,2.27689 -0.03448,0.0223 -0.985564,0.004 -1.104208,0.008 -0.677746,0.0474 -0.98794,0.0411 -1.469834,-0.47866 -0.152487,-0.1683 -0.247202,-0.37298 -0.379856,-0.5555 0,0 2.611568,-1.60375 2.611568,-1.60375 v 0 c 0.09323,0.13509 0.172201,0.28158 0.285969,0.39976 0.07409,0.0328 0.816461,-0.11531 0.959413,-0.0687 0.18797,-0.0146 0.341657,-0.0221 0.528258,-0.0554 0.07601,-0.0135 0.153862,-0.0242 0.225477,-0.0531 0.0501,-0.0202 0.176655,-0.12432 0.133628,-0.0917 -2.357301,1.78896 -2.733174,0.89416 -1.995626,2.08098 0.0067,0.0118 0.09478,0.11141 0.01,0.12941 -0.374988,0.0797 -0.795589,-0.0436 -1.172696,0.0429 -0.884194,0.057 -1.763962,0.14945 -2.64492,0.24146 -0.611603,-0.0116 -1.179354,-0.0549 -1.64468,-0.49677 -0.356415,-0.37103 -0.547875,-0.80908 -0.79787,-1.25055 -0.253926,-0.48129 -0.67669,-0.81498 -1.166116,-1.04118 -0.981477,-0.51348 -1.897399,-1.13644 -2.787773,-1.79422 -0.379993,-0.30992 -0.789494,-0.62551 -1.130386,-0.97993 -0.78278,-0.81385 -1.2241327,-1.85766 -1.5640234,-2.91862 -0.3903,-1.24871 -0.7952017,-2.49537 -1.0572275,-3.77943 -0.2715151,-1.33056 -0.2449674,-1.52682 -0.3716806,-2.87471 -0.045862,-0.48785 -0.094521,-0.97544 -0.1417812,-1.46316 -0.030407,-0.39553 -0.053082,-0.79174 -0.091222,-1.1866 -0.022836,-0.23642 -0.061863,-0.47101 -0.091646,-0.70665 -0.00477,-0.0378 0.022871,-0.0983 -0.01202,-0.11358 -0.030452,-0.0133 -0.02222,0.0664 -0.048038,0.0873 -0.075163,0.0609 -0.3302434,0.20171 -0.2472735,0.15196 0.6327328,-0.37944 1.2643841,-0.76067 1.8965758,-1.141 -0.9477059,0.60965 -1.8046817,1.35102 -2.6131743,2.126 -0.6606262,0.51754 -1.4629839,0.8347 -2.0322373,1.46882 -1.0790746,1.07855 -1.9381174,2.34361 -3.0423982,3.39941 -1.94531901,1.98072 -3.6634812,4.16393 -5.3144456,6.39324 0,0 -2.982517,0.5362 -2.982517,0.5362 z"
       inkscape:connector-curvature="0" />
    <path
       style="fill:#000000;fill-opacity:1;stroke-width:1.5;stroke-linecap:round;stroke-miterlimit:4;stroke-dasharray:none"
       id="path2839"
       d="m -12.541787,150.87296 c -0.101832,3.21234 -0.484075,6.40685 -0.64003,9.61553 0.04691,1.28035 0.255146,1.87874 -2.799425,1.3371 -0.415129,-0.0736 0.03041,-0.84456 -0.0033,-1.26481 -0.165539,-2.06431 -0.67949,-4.0945 -1.125404,-6.10983 -0.511115,-1.86024 -0.937512,-3.82022 -1.933711,-5.50165 -0.112999,-0.19072 -0.174655,-0.53635 -0.39633,-0.53406 -0.179681,0.002 0.025,0.35851 0.0375,0.53776 0.700438,-0.26226 1.387799,-1.01106 2.101315,-0.7868 0.441851,0.13888 -0.200428,0.90536 -0.264808,1.36402 -0.30195,2.15119 -0.202177,4.3072 0.02994,6.45693 0.202734,1.05011 0.414657,2.11231 0.832757,3.10286 0.08395,0.19889 0.120161,0.44738 0.291961,0.57811 0.07713,0.0587 0.214262,-0.28453 0.119294,-0.26517 -0.759307,0.15479 -1.479342,0.46213 -2.219013,0.6932 0.749851,-2.54857 0.879069,-5.31075 0.948991,-7.95887 0.947424,-0.11182 1.928166,-0.60845 2.842273,-0.33546 0.378353,0.11299 0.0015,0.78973 0.0011,1.1846 -0.0023,1.81387 -0.0079,3.62734 0.0099,5.44117 0.07574,1.1312 0.331243,1.51903 -2.60015,1.30216 -0.30637,-0.0227 0.08571,-0.60841 0.127455,-0.91276 0.144148,-1.05086 0.198976,-1.47477 0.338712,-2.53045 0.215995,-1.71462 0.07826,-0.60496 0.2629,-2.12639 0.157825,-1.30047 0.05634,-1.38931 2.863796,-1.64114 0.316704,-0.0284 0.12148,0.62636 0.13783,0.94392 0.01872,0.36358 -0.02201,0.72779 -0.03302,1.09169 -0.06004,1.92936 -0.108169,3.85924 -0.128244,5.78947 -0.04432,2.31964 0.567355,1.30253 -2.873305,2.41029 -0.0069,-0.42475 0.03926,-0.85219 -0.04379,-1.2711 -0.283097,-0.1302 -0.544242,-0.31014 -0.860509,-0.38093 -0.238661,-0.048 -0.114667,-0.002 -0.360308,-0.1663 0,0 2.355775,-1.9682 2.355775,-1.9682 v 0 c 0.162337,0.0275 0.06354,0.004 0.289818,0.0934 0.541642,0.26581 1.067315,0.57914 1.353563,1.13383 0.12192,0.48333 0.153937,0.9569 0.130828,1.45525 -3.423857,1.475 -2.867459,2.09297 -2.817954,-0.24582 0.07647,-1.93276 0.152033,-3.86593 0.181751,-5.80007 -0.0016,-2.06139 -0.04427,-1.61384 2.769848,-2.75238 0.118204,-0.0478 -0.119158,0.22882 -0.146524,0.35335 -0.04639,0.21111 -0.286594,2.03967 -0.299571,2.13634 -0.08035,0.61491 -0.249672,1.86652 -0.309165,2.49319 -0.03041,0.3203 0.166737,0.73926 -0.06441,0.96306 -1.280629,1.23988 -2.80845,2.67405 -3.015979,1.47146 -0.04448,-0.25777 -0.01386,-0.52298 -0.0208,-0.78448 0.02757,-1.80874 0.04024,-3.61801 -5.03e-4,-5.42671 -0.0086,-0.37975 -0.295524,-0.86082 -0.03682,-1.13896 0.750004,-0.80636 1.846886,-1.19996 2.770329,-1.79994 -0.304549,2.75204 -0.309273,5.54228 -0.863782,8.26446 -0.957153,0.71607 -1.803394,1.61143 -2.871457,2.14822 -0.211363,0.10623 -0.425259,-0.23291 -0.574816,-0.41619 -0.158268,-0.19395 -0.226972,-0.44705 -0.319422,-0.67969 -0.423097,-1.06467 -0.635568,-2.19776 -0.857469,-3.31614 -0.240809,-2.22162 -0.310078,-4.43812 -0.114972,-6.66821 0.04268,-0.48782 -0.113374,-1.05887 0.168384,-1.45937 0.688712,-0.97898 1.733606,-1.6509 2.600409,-2.47634 0.232265,0.11258 0.50448,0.16559 0.696794,0.33774 0.26738,0.23936 0.820235,1.47798 0.90454,1.67824 0.641464,1.52374 1.051649,3.12789 1.440119,4.73053 0.449758,2.0568 0.928446,4.10816 1.259372,6.1886 0.07407,0.46567 0.522095,1.06971 0.187627,1.40207 -0.749584,0.74487 -1.864615,1.06004 -2.896161,1.28943 -0.211648,0.0471 0.01416,-0.43341 0.02124,-0.65011 0.254158,-3.17689 0.648832,-6.35123 0.611742,-9.54357 0,0 2.803301,-1.07609 2.803301,-1.07609 z"
       inkscape:connector-curvature="0" />
    <path
       style="fill:#000000;fill-opacity:1;stroke-width:1.5;stroke-linecap:round;stroke-miterlimit:4;stroke-dasharray:none"
       id="path2841"
       d="m -19.076625,148.70179 c 0.178859,0.49495 0.414988,0.96665 0.597769,1.46002 0.120803,0.32607 0.222026,0.66209 0.326332,0.9936 0.263035,0.84312 0.635983,1.64443 0.940494,2.47251 0.118103,0.22989 0.157402,0.94234 0.388233,1.07034 0.0048,-0.0395 0.05217,-0.13097 0.01447,-0.11837 -0.260423,0.0871 -0.486491,0.25659 -0.740428,0.36107 -0.07913,0.0325 0.143808,-0.093 0.212567,-0.14389 0.422921,-0.3132 0.835066,-0.63191 1.268688,-0.93148 0.711476,-0.48089 1.47043,-0.88473 2.220598,-1.30036 0.126353,-0.07 0.508703,-0.27399 0.381053,-0.20637 -0.585066,0.30989 -0.673393,0.4277 -0.357237,0.11698 0.02126,-0.0604 0.06054,-0.1172 0.06378,-0.18113 0.02126,-0.41993 -0.709556,-1.09231 -0.975976,-1.38877 -0.07931,-0.0926 -0.160366,-0.18364 -0.237931,-0.27767 -0.356984,-0.43272 -0.669607,-0.77396 -1.095764,-1.14303 -0.226263,-0.18209 -0.476713,-0.32973 -0.744291,-0.44214 -0.06859,-0.0288 -0.138016,-0.0564 -0.209523,-0.0769 -0.05417,-0.0155 -0.215426,-0.004 -0.166221,-0.031 0.242086,-0.13523 0.515221,-0.20525 0.772831,-0.30787 -0.03047,0.0439 -0.08202,0.0791 -0.09141,0.13167 -0.03831,0.21464 0.06334,0.58954 0.116627,0.76935 0.160371,0.54119 0.377002,0.94885 0.669661,1.42479 0.312809,0.43586 0.724767,0.88358 1.283808,0.97553 0.06137,0.0101 0.124297,0.005 0.186445,0.007 0.215161,-0.4465 0.02053,0.039 -0.618519,0.20212 -0.07583,0.0194 0.07304,-0.13867 0.103399,-0.21081 0.07645,-0.18168 0.127838,-0.37643 0.191253,-0.56304 0.172857,-0.48469 -0.03657,-0.27516 1.09777,-0.46346 0.03665,-0.006 0.02736,0.0697 0.03324,0.10638 0.0312,0.19489 -1.2e-4,0.16413 -0.107742,0.36471 -0.387202,0.15492 -0.759308,0.35484 -1.161607,0.46474 -0.119452,0.0326 -0.247256,-0.0217 -0.368539,-0.0467 -0.34989,-0.0721 -0.744741,-0.20034 -1.025902,-0.43036 -0.08914,-0.0729 -0.15873,-0.1669 -0.238095,-0.25034 -0.199996,-0.28792 -0.460635,-0.6565 -0.344515,-1.03366 0.02578,-0.0837 0.05314,-0.19282 0.134232,-0.22597 0.375306,-0.15338 0.784169,-0.20642 1.176253,-0.30963 0.392392,0.27707 0.642793,0.67987 0.910436,1.06712 0.01961,0.0284 0.29859,0.49637 0.445966,0.52388 0.0467,0.009 -0.03416,-0.0887 -0.05124,-0.13299 -0.29195,0.19214 -0.555259,0.43723 -0.875849,0.57643 -0.05976,0.0259 -0.09134,-0.0933 -0.141661,-0.13464 -0.250956,-0.20633 -0.536585,-0.35398 -0.780473,-0.57038 -0.0427,-0.0433 -0.08541,-0.0866 -0.128115,-0.12985 0,0 0.884992,-0.60548 0.884992,-0.60548 v 0 c 0.0368,0.0374 0.0736,0.0747 0.110394,0.11205 0.250996,0.2127 0.54257,0.37066 0.789341,0.58854 0.0682,0.0602 0.23425,0.11339 0.19201,0.19397 -0.169547,0.32343 -0.482985,0.54785 -0.724478,0.82177 -0.159114,-0.1248 -0.211862,-0.15451 -0.354272,-0.33661 -0.336851,-0.43072 -0.561113,-0.97131 -1.056422,-1.25348 0.224005,-0.15625 0.483018,-0.27159 0.672016,-0.46876 0.04376,-0.0456 -0.127936,-0.064 -0.185776,-0.0385 -0.226892,0.1003 0.118966,0.66897 0.199941,0.76079 0.06278,0.062 0.117579,0.13339 0.188346,0.18614 0.255018,0.19012 0.61156,0.29068 0.922902,0.32413 0.109961,0.0118 0.391448,-0.0894 0.331761,0.004 -0.129243,0.2016 -0.395718,0.26979 -0.593578,0.40469 0.05221,0.0177 0.102209,0.0443 0.156636,0.0531 0.09937,0.016 4.49e-4,-0.0443 0.03965,-0.0619 0.322912,-0.14535 0.658545,-0.26091 0.983568,-0.40148 0.01315,-0.006 -0.03119,-0.0141 -0.04264,-0.005 -0.02393,0.018 -0.03309,0.0499 -0.04964,0.0749 -0.08113,0.18841 -0.137802,0.37779 -0.200689,0.57289 -0.02803,0.087 -0.02409,0.19497 -0.08905,0.2592 -0.789464,0.78067 -0.576669,0.71499 -1.173796,0.7741 -0.718102,-0.17108 -1.21043,-0.61119 -1.613122,-1.22209 -0.294003,-0.49318 -0.533264,-0.95435 -0.713994,-1.5029 -0.0835,-0.25345 -0.192075,-0.6343 -0.199351,-0.91133 -0.0032,-0.1218 0.0272,-0.24216 0.0408,-0.36324 0.357635,-0.16647 0.699985,-0.37078 1.072906,-0.49941 0.06283,-0.0217 0.126978,0.0397 0.18877,0.0642 0.367428,0.14559 0.704346,0.35921 1.009336,0.60893 0.252514,0.22116 0.496687,0.44396 0.721316,0.69405 0.263731,0.29362 0.14871,0.17974 0.399364,0.48956 0.0747,0.0923 0.152698,0.18193 0.229046,0.2729 0.385926,0.43023 1.058101,1.04045 1.116531,1.64216 0.01045,0.10765 -0.02085,0.21531 -0.03127,0.32297 -0.375661,0.63651 -0.09077,0.25477 -1.262727,0.93406 -0.12279,0.0712 -0.26866,0.29057 -0.376673,0.1985 -0.105205,-0.0897 0.4797,-0.27187 0.351633,-0.21984 -0.162237,0.0659 -0.84856,0.50043 -0.982953,0.58373 -0.586469,0.39356 -0.397123,0.25219 -0.922103,0.65594 -0.103574,0.0797 -0.210245,0.15566 -0.308855,0.24138 -0.07007,0.0609 -0.116336,0.15039 -0.196222,0.19771 -0.329468,0.19517 -0.661179,0.39667 -1.022287,0.52411 -0.07108,0.0251 -0.138247,-0.0601 -0.207371,-0.0901 -0.30548,-0.34573 -0.303596,-0.79101 -0.44297,-1.21455 -0.289763,-0.83859 -0.658096,-1.6469 -0.927702,-2.49269 -0.101261,-0.32562 -0.196437,-0.6493 -0.317551,-0.9684 -0.187756,-0.49469 -0.426148,-0.96903 -0.637854,-1.45343 0,0 0.95723,-0.48763 0.95723,-0.48763 z"
       inkscape:connector-curvature="0" />
    <rect
       style="fill:#e6e6e6;fill-opacity:1;stroke-width:1.06527793;stroke-linecap:round;stroke-miterlimit:4;stroke-dasharray:none"
       id="rect2873"
       width="18.208134"
       height="12.504382"
       x="152.30836"
       y="117.53638" />
    <path
       style="fill:#666666;fill-opacity:1;stroke-width:1.06527793;stroke-linecap:round;stroke-miterlimit:4;stroke-dasharray:none"
       id="path2883"
       d="m 152.57115,116.76832 c -0.11385,2.02265 -0.10983,4.04996 -0.12058,6.07514 0.0111,2.41084 0.0506,4.82764 0.28839,7.22838 0.023,0.17308 0.0433,0.34652 0.069,0.51922 0.0253,0.16981 0.0506,0.33366 0.10058,0.49696 0.009,0.0291 0.009,-0.0979 -0.0197,-0.0889 -1.25328,0.39337 -2.02943,0.87889 -1.49019,0.54516 0.12202,-0.15172 0.14632,-0.36764 0.25523,-0.52435 0.031,-0.0447 0.0732,-0.0806 0.10979,-0.12088 0.53314,-0.31098 1.56669,-0.91432 1.74714,-1.00718 0.13932,-0.0717 0.79227,-0.1765 0.89526,-0.19167 0.55975,-0.0825 0.90571,-0.107 1.48098,-0.16157 1.92907,-0.15165 3.86471,-0.17344 5.79859,-0.15739 1.67014,0.054 3.3401,0.11077 5.01088,0.14089 1.08034,0.0196 2.15746,0.0878 3.23058,0.21134 0.43638,0.0516 0.87406,0.093 1.31338,0.1063 0.30709,-0.62293 -0.29735,0.089 -1.20021,0.61198 -0.0356,0.0207 0.0577,-0.0589 0.0856,-0.0892 0.14603,-0.15901 0.0938,-0.10203 0.234,-0.33043 0.50824,-0.99703 0.46165,-2.15794 0.39526,-3.24396 -0.0917,-0.98098 -0.1699,-1.96307 -0.29381,-2.94063 -0.13622,-0.9213 -0.17862,-1.85351 -0.24481,-2.78181 -0.0535,-0.64109 -0.0494,-1.28528 -0.0562,-1.92815 -0.0197,-0.22491 -0.009,-0.46609 -0.0857,-0.68289 -0.016,-0.0451 -0.0955,-0.16531 -0.11296,-0.19322 -0.0663,-0.11079 -0.13459,-0.22028 -0.20553,-0.32817 0,0 1.48788,-0.88824 1.48788,-0.88824 v 0 c 0.0705,0.11149 0.13644,0.22538 0.20425,0.33855 0.0581,0.094 0.1499,0.23551 0.19033,0.33447 0.10324,0.25274 0.0835,0.54383 0.10793,0.80877 -0.002,0.63774 0.005,1.27517 0.0255,1.91261 0.0342,0.92147 0.0992,1.83981 0.22689,2.75349 0.11323,0.99186 0.21292,1.98448 0.27357,2.98126 0.0239,0.40536 0.0614,0.93519 0.058,1.33844 -0.004,0.50675 -0.0373,0.79592 -0.10737,1.29038 -0.0248,0.17505 -0.0461,0.35107 -0.0851,0.52352 -0.0263,0.11644 -0.0736,0.22716 -0.11035,0.34074 -0.0679,0.1377 -0.12162,0.28231 -0.19338,0.41804 -0.0212,0.04 -0.041,0.0849 -0.078,0.11089 -0.76568,0.53754 -0.98811,1.05797 -1.70221,0.90772 -0.43362,-0.0468 -0.8663,-0.10101 -1.29836,-0.16055 -1.04559,-0.13312 -2.09728,-0.19808 -3.1509,-0.2252 -1.65978,-0.0449 -3.3181,-0.12845 -4.97803,-0.16707 -1.92568,-0.0169 -3.85525,0.007 -5.77176,0.21596 -0.65332,0.0883 -1.32706,0.15216 -1.95011,0.38527 -0.11615,0.0435 -0.43992,0.22762 -0.33563,0.16051 1.61925,-1.04196 1.3447,-0.8417 0.92208,-0.51723 -0.06,0.008 -0.1235,-0.004 -0.18063,0.0164 -0.12685,0.0439 -0.14408,0.25588 -0.21785,0.34928 -0.15948,0.68747 -0.0406,0.34127 -1.65337,0.80807 -0.0644,0.0187 -0.0779,-0.11141 -0.0991,-0.175 -0.0219,-0.0655 -0.0207,-0.13663 -0.028,-0.20532 -0.0126,-0.11973 -0.0226,-0.23972 -0.0316,-0.35977 -0.0135,-0.18189 -0.0239,-0.36401 -0.0358,-0.54601 -0.119,-2.43457 -0.14129,-4.87281 -0.17579,-7.30967 -0.0106,-1.99428 -0.005,-3.99091 -0.12058,-5.98257 0,0 1.62242,-0.62278 1.62242,-0.62278 z"
       inkscape:connector-curvature="0" />
    <path
       style="fill:#666666;fill-opacity:1;stroke-width:1.06527793;stroke-linecap:round;stroke-miterlimit:4;stroke-dasharray:none"
       id="path2885"
       d="m 152.61667,116.40667 c 0.70644,0.18327 1.41504,0.36143 2.13031,0.50693 0.81704,0.15807 1.64931,0.19246 2.47896,0.21291 0.74488,0.0104 1.48983,0.008 2.23475,0.005 0.75892,3.7e-4 1.51783,10e-4 2.27674,-0.003 0.60548,-0.003 1.21097,-0.003 1.81644,-0.006 0.61785,0.0186 1.23333,-0.006 1.84764,-0.0722 0.65026,-0.0673 1.30173,-0.11476 1.95502,-0.1359 0.52167,0.009 1.0386,-0.0381 1.55813,-0.0743 0.43322,-0.0337 0.86781,-0.0433 1.30209,-0.0532 0.21041,-0.004 0.42082,-0.007 0.63126,-0.006 0.14833,-1.9e-4 0.29667,1.8e-4 0.445,3.8e-4 0.0225,-2e-4 0.0451,-3.8e-4 0.0676,-5.7e-4 0,0 -1.16617,1.29469 -1.16617,1.29469 v 0 c -0.0222,-1.8e-4 -0.0444,-3.7e-4 -0.0666,-7.1e-4 -0.14823,-8e-5 -0.29647,0 -0.4447,-7.1e-4 -0.20403,3.8e-4 -0.40808,-0.002 -0.61211,0.001 -0.42405,0.007 -0.84764,0.0254 -1.27061,0.0574 -0.52219,0.038 -1.04423,0.0503 -1.56771,0.0598 -0.64384,0.0286 -1.28644,0.0785 -1.92746,0.14533 -0.6303,0.048 -1.26098,0.0597 -1.89304,0.0533 -0.60153,-0.004 -1.20308,-0.004 -1.80462,-0.006 -0.75858,-0.004 -1.51715,-7.1e-4 -2.27572,0.003 -0.74761,-7.1e-4 -1.49553,0.004 -2.24277,-0.0226 -0.85043,-0.0357 -1.70177,-0.0974 -2.53538,-0.27987 -0.72249,-0.15587 -1.44049,-0.33466 -2.16872,-0.46252 0,0 1.23167,-1.21489 1.23167,-1.21489 z"
       inkscape:connector-curvature="0" />
    <path
       style="fill:#666666;fill-opacity:1;stroke-width:1.06527793;stroke-linecap:round;stroke-miterlimit:4;stroke-dasharray:none"
       id="path2887"
       d="m 169.94251,130.34252 c 0.009,-0.12961 0.0246,-0.25895 0.0256,-0.38884 0.004,-0.55813 -0.084,-1.11135 -0.15493,-1.66317 -0.0887,-0.69042 -0.0562,-0.43099 -0.13647,-1.10188 -0.0851,-0.68525 -0.13746,-1.37362 -0.17475,-2.06287 -0.0162,-0.26464 -0.0172,-0.52966 -0.0168,-0.79466 0.006,-0.47321 0.0229,-0.94589 0.0247,-1.41918 -0.004,-0.61546 -0.001,-1.23083 -0.0109,-1.84626 -0.0446,-0.53751 0.0617,-1.06395 0.1454,-1.59189 0.0644,-0.41562 0.11879,-0.83274 0.15481,-1.25177 0.003,-0.0341 0.005,-0.0682 0.007,-0.10224 0,0 1.63033,-0.5925 1.63033,-0.5925 v 0 c -0.002,0.0384 -0.004,0.0769 -0.006,0.11528 -0.0366,0.43681 -0.11583,0.86817 -0.18353,1.30086 -0.0363,0.22966 -0.0688,0.45991 -0.10525,0.68955 -0.0131,0.0829 -0.0354,0.16444 -0.0433,0.24798 -0.018,0.1888 0.0186,0.38291 -0.004,0.57199 -0.009,0.61831 -0.006,1.23657 -0.0112,1.85492 10e-4,0.46825 0.0192,0.9359 0.0209,1.4041 -0.002,0.26184 -0.006,0.52365 -0.008,0.78547 0.003,0.68348 0.0381,1.3665 0.10413,2.04684 0.11127,1.07206 0.299,2.13704 0.35437,3.21351 0,0 -1.613,0.58476 -1.613,0.58476 z"
       inkscape:connector-curvature="0" />
    <rect
       style="fill:#000000;fill-opacity:1;stroke-width:1.5;stroke-linecap:round;stroke-miterlimit:4;stroke-dasharray:none"
       id="rect2959"
       width="135.15381"
       height="133.95634"
       x="449.56711"
       y="95.138016" />
    <rect
       style="fill:#000000;fill-opacity:1;stroke-width:2.01146555;stroke-linecap:round;stroke-miterlimit:4;stroke-dasharray:none"
       id="rect2961"
       width="493.43405"
       height="59.426567"
       x="-23.885855"
       y="200.27658" />
  </g>
</svg>
